<?xml version="1.0" encoding="UTF-8" standalone="no"?>
<svg
   xmlns:dc="http://purl.org/dc/elements/1.1/"
   xmlns:cc="http://creativecommons.org/ns#"
   xmlns:rdf="http://www.w3.org/1999/02/22-rdf-syntax-ns#"
   xmlns:svg="http://www.w3.org/2000/svg"
   xmlns="http://www.w3.org/2000/svg"
   xmlns:sodipodi="http://sodipodi.sourceforge.net/DTD/sodipodi-0.dtd"
   xmlns:inkscape="http://www.inkscape.org/namespaces/inkscape"
   version="1.1"
   id="svg2"
   xml:space="preserve"
   width="666.66669"
   height="562.32001"
   viewBox="0 0 666.66669 562.32001"
   sodipodi:docname="tropical.eps"><metadata
     id="metadata8"><rdf:RDF><cc:Work
         rdf:about=""><dc:format>image/svg+xml</dc:format><dc:type
           rdf:resource="http://purl.org/dc/dcmitype/StillImage" /></cc:Work></rdf:RDF></metadata><defs
     id="defs6" /><sodipodi:namedview
     pagecolor="#ffffff"
     bordercolor="#666666"
     borderopacity="1"
     objecttolerance="10"
     gridtolerance="10"
     guidetolerance="10"
     inkscape:pageopacity="0"
     inkscape:pageshadow="2"
     inkscape:window-width="640"
     inkscape:window-height="480"
     id="namedview4" /><g
     id="g10"
     inkscape:groupmode="layer"
     inkscape:label="ink_ext_XXXXXX"
     transform="matrix(1.3333333,0,0,-1.3333333,0,562.32)"><g
       id="g12"
       transform="scale(0.1)"><path
         d="M 4065.65,1808.47 2320.28,800.852 l -22.5,13.046 -203.6,117.493 -93.49,54.07 -136.58,78.829 -16.36,9.36 -48.87,28.26 -418.64,241.7 -124.01,71.64 -381.027,220.05 -56.238,32.42 -243.965,140.75 496.62,286.78 c 40.56,23.44 59.65,34.41 59.65,34.41 l 772.25,445.87 42.16,24.38 h 0.09 l 181.3,104.64 193.21,111.63 508.44,-293.59 67.96,-39.22 466.75,-269.49 38.29,-22.21 h 0.09 l 23.91,-13.8 25.15,-14.46 0.28,-0.19 225.44,-130.16 44.23,-25.52 60.31,-34.79 190.27,-109.83 93.87,-54.26 0.38,-0.19"
         style="fill:#ffd358;fill-opacity:1;fill-rule:nonzero;stroke:none"
         id="path14" /><path
         d="m 575.008,1808.51 v -77.25 L 2320.3,723.609 v 77.25 L 575.008,1808.51"
         style="fill:#ff935d;fill-opacity:1;fill-rule:nonzero;stroke:none"
         id="path16" /><path
         d="m 2319.97,801.012 v -77.25 l 1745.3,1007.648 v 77.25 L 2319.97,801.012"
         style="fill:#ffdc85;fill-opacity:1;fill-rule:nonzero;stroke:none"
         id="path18" /><path
         d="m 2000.7,985.422 -142.15,82.048 5.56,-3.18 136.58,-78.829 0.03,-0.02 c -0.01,-0.011 -0.02,-0.011 -0.02,-0.019 m -194.75,112.398 -7.07,4.08 0.01,0.01 7.06,-4.09"
         style="fill:#f6d9ab;fill-opacity:1;fill-rule:nonzero;stroke:none"
         id="path20" /><path
         d="m 2000.72,985.441 -0.03,0.02 -136.58,78.829 -5.56,3.18 -10.78,6.22 -15.22,8.78 -26.6,15.35 -7.06,4.09 1.27,1.13 c 4,3.81 8.25,6.91 11.93,10.97 l 11.3,11.62 2.77,2.84 2.58,3.22 5.16,6.26 5.16,6.13 2.65,3.04 2.32,3.35 c 21.99,29.49 40.32,62.74 55.77,99.27 l 207.76,-108.66 42.52,24.55 c -0.25,-0.45 -0.52,-0.9 -0.79,-1.35 l -6.84,-11.55 c -35.42,-61.22 -82.25,-120.13 -141.73,-167.289"
         style="fill:#f6c14f;fill-opacity:1;fill-rule:nonzero;stroke:none"
         id="path22" /><path
         d="m 1832.55,1082.47 -33.69,19.41 0.02,0.02 7.07,-4.08 26.6,-15.35"
         style="fill:#f69d52;fill-opacity:1;fill-rule:nonzero;stroke:none"
         id="path24" /><path
         d="m 3427.53,2176.82 -1.81,1.05 -0.02,0.01 v 0 l 1.83,-1.06"
         style="fill:#f6d9ab;fill-opacity:1;fill-rule:nonzero;stroke:none"
         id="path26" /><path
         d="m 3278.72,2035.44 -52.08,28.02 c 7,3.14 13.97,6.35 20.91,9.64 30.2,14.19 59.88,29.74 88.79,46.71 l 37.35,22.71 c 12.46,7.68 24.14,16.39 36.27,24.52 l 15.74,10.84 0.02,-0.01 1.81,-1.05 23.33,-13.45 c -1.87,-1.75 -3.74,-3.49 -5.74,-5.17 l -17.23,-14.45 c -11.54,-9.49 -22.77,-19.55 -34.71,-28.65 l -36.13,-26.97 c -9.68,-7.68 -20.01,-14.45 -30.26,-21.29 -2.26,-1.49 -4.52,-2.97 -6.78,-4.52 l -18.78,-12.58 c -6.25,-4.2 -12.45,-8.58 -19.03,-12.26 -1.16,-0.68 -2.32,-1.36 -3.48,-2.04"
         style="fill:#f6c14f;fill-opacity:1;fill-rule:nonzero;stroke:none"
         id="path28" /><path
         d="m 1884.74,2354.81 c -98.91,-69.3 -131.88,-365.98 -135.17,-656.72 -3.36,-290.75 -493.35,-282.88 -493.35,-282.88 l -437.275,252.48 -243.898,140.79 496.573,286.75 c 40.58,23.42 59.62,34.39 59.62,34.39 l 772.28,445.92 42.2,24.39 h 0.06 l 181.32,104.66 c 275.38,-62.27 -143.44,-280.55 -242.36,-349.78"
         style="fill:#ffdc85;fill-opacity:1;fill-rule:nonzero;stroke:none"
         id="path30" /><path
         d="m 875.145,1635.24 -56.2,32.45 v 0 l 56.203,-32.45 c -0.003,0 -0.003,0 -0.003,0"
         style="fill:#f6d9ab;fill-opacity:1;fill-rule:nonzero;stroke:none"
         id="path32" /><path
         d="m 875.148,1635.24 -56.203,32.45 c 25.551,46.85 55.875,91.37 89.946,133.18 76.847,94.21 173.439,172.93 279.649,233.96 l 40.19,22.39 c 13.62,6.91 27.43,13.49 41.17,20.26 13.68,7.04 27.81,12.84 41.88,18.84 l 21.1,9.04 c 7.03,3.03 14.06,5.93 21.29,8.52 l 42.97,15.8 10.78,3.88 10.9,3.41 1.14,0.36 -278.49,-160.79 108.58,-62.68 -305.773,-164.36 33.957,-17.76 c -20.921,-17.59 -42.093,-35.31 -61.668,-54.69 -14.32,-13.36 -28,-27.42 -41.418,-41.81"
         style="fill:#f6c568;fill-opacity:1;fill-rule:nonzero;stroke:none"
         id="path34" /><path
         d="m 2150.08,1165.63 c 1.95,3.42 3.52,6.85 5.34,10.33 l 11.81,23.42 c 8.39,15.62 14.58,31.49 21.29,47.36 l 9.88,23.87 7.87,20.65 c 5.1,13.87 10.06,27.75 14.84,41.62 18.97,55.56 34.19,111.82 47.1,167.31 l 2.98,13.05 622.29,359.28 c 49,12.54 97.18,27.6 144.31,45.01 l 42.38,16.97 21.1,8.45 20.72,9.55 41.29,19.1 c 13.55,6.71 26.84,14.07 40.26,20.97 25.9,12.82 50.38,28.3 75.18,42.87 L 3474.35,1930.2 2150.08,1165.63 m -250.28,84.11 -385.41,201.58 c 98.08,29.5 193.76,83.06 224.77,180.15 l 240.97,-139.13 c -9.19,-23.66 -17.58,-47.42 -25.25,-71.32 -4.58,-14.2 -8.9,-28.39 -13.03,-42.65 l -11.16,-39.23 c -3.49,-11.94 -6.65,-24.2 -10.78,-35.36 -4.06,-11.29 -7.42,-23.42 -12.07,-34.07 -2.59,-6.76 -5.26,-13.42 -8.04,-19.97 m 1316.34,809.07 9.23,5.33 1.27,-0.68 c -3.49,-1.56 -7,-3.12 -10.5,-4.65"
         style="fill:#f6c14f;fill-opacity:1;fill-rule:nonzero;stroke:none"
         id="path36" /><path
         d="m 2107.56,1141.08 -207.76,108.66 c 2.78,6.55 5.45,13.21 8.04,19.97 4.65,10.65 8.01,22.78 12.07,34.07 4.13,11.16 7.29,23.42 10.78,35.36 l 11.16,39.23 c 4.13,14.26 8.45,28.45 13.03,42.65 7.67,23.9 16.06,47.66 25.25,71.32 l 127.43,-73.57 163.63,94.47 -2.98,-13.05 c -12.91,-55.49 -28.13,-111.75 -47.1,-167.31 -4.78,-13.87 -9.74,-27.75 -14.84,-41.62 l -7.87,-20.65 -9.88,-23.87 c -6.71,-15.87 -12.9,-31.74 -21.29,-47.36 l -11.81,-23.42 c -1.82,-3.48 -3.39,-6.91 -5.34,-10.33 l -42.52,-24.55 m 785.92,731.44 112.02,64.68 0.02,-0.01 175.71,101.47 34.91,20.15 c 3.5,1.53 7.01,3.09 10.5,4.65 l 52.08,-28.02 c -24.8,-14.57 -49.28,-30.05 -75.18,-42.87 -13.42,-6.9 -26.71,-14.26 -40.26,-20.97 l -41.29,-19.1 -20.72,-9.55 -21.1,-8.45 -42.38,-16.97 c -47.13,-17.41 -95.31,-32.47 -144.31,-45.01"
         style="fill:#f1b74a;fill-opacity:1;fill-rule:nonzero;stroke:none"
         id="path38" /><path
         d="m 1514.39,1451.32 -536.156,280.42 c 0.114,0.1 0.227,0.19 0.34,0.29 84.916,70 179.376,124.98 278.166,168.46 3.13,1.38 6.26,2.73 9.41,4.07 l 473.01,-273.09 c -31.01,-97.09 -126.69,-150.65 -224.77,-180.15"
         style="fill:#f6c568;fill-opacity:1;fill-rule:nonzero;stroke:none"
         id="path40" /><path
         d="m 978.234,1731.74 -33.957,17.76 305.773,164.36 16.1,-9.3 c -3.15,-1.34 -6.28,-2.69 -9.41,-4.07 -98.79,-43.48 -193.25,-98.46 -278.166,-168.46 -0.113,-0.1 -0.226,-0.19 -0.34,-0.29"
         style="fill:#f1b958;fill-opacity:1;fill-rule:nonzero;stroke:none"
         id="path42" /><path
         d="m 2470.71,713.988 -83.83,48.41 1678.39,969.012 v 76.84 l 0.11,0.07 258.51,-149.3 101.09,-58.39 0.02,0.01 -101.11,58.38 C 4093.78,1629.86 3897.73,1497.3 3817.82,1429.82 3714.5,1342.61 3406.46,1016.8 2972.96,985.43 2545.8,954.469 2472.76,720.828 2470.71,713.988"
         style="fill:#8ee7d9;fill-opacity:1;fill-rule:nonzero;stroke:none"
         id="path44" /><path
         d="m 4065.27,1808.25 v 0.13 l 0.11,-0.06 -0.11,-0.07"
         style="fill:#8ed9a7;fill-opacity:1;fill-rule:nonzero;stroke:none"
         id="path46" /><path
         d="m 2386.88,762.398 -66.53,38.411 c -0.04,0.019 -0.06,0.043 -0.07,0.043 L 4065.25,1808.39 v 0 l 0.02,-0.01 v -0.13 -76.84 L 2386.88,762.398"
         style="fill:#8edcb4;fill-opacity:1;fill-rule:nonzero;stroke:none"
         id="path48" /><path
         d="m 2679.7,515.738 v 0.344 l 0.29,-0.172 -0.29,-0.172 m 0.34,0.192 v 77.211 l 13.02,7.558 109.86,63.43 102.91,59.383 32.73,18.929 207.3,119.68 6.38,3.649 48.89,28.261 71.45,41.258 1095.09,632.241 57.33,33.09 v -77.23 L 2680.04,515.93 M 4425,1600.62 v 0 l -0.02,0.01 0.02,0.01 v -0.02"
         style="fill:#add4d8;fill-opacity:1;fill-rule:nonzero;stroke:none"
         id="path50" /><path
         d="m 2680.04,515.891 -0.05,0.019 0.05,0.02 v -0.039 m -0.34,0.191 -359.42,207.52 v 0.027 l 0.02,-0.02 v 0.352 l 66.48,38.379 c 24.44,-14.129 53.58,-30.981 83.89,-48.5 v 0 0 c 97.41,-56.328 206.71,-119.512 209.04,-120.852 h -0.01 v -76.906"
         style="fill:#6dddca;fill-opacity:1;fill-rule:nonzero;stroke:none"
         id="path52" /><path
         d="m 2320.3,723.609 v 0 l -0.02,0.332 0.02,0.02 v -0.352"
         style="fill:#6dbc99;fill-opacity:1;fill-rule:nonzero;stroke:none"
         id="path54" /><path
         d="m 2320.28,723.941 v 76.911 l 0.07,-0.043 c 1.58,-0.957 28.26,-16.399 66.43,-38.469 l -66.48,-38.379 -0.02,-0.02"
         style="fill:#6dd2a5;fill-opacity:1;fill-rule:nonzero;stroke:none"
         id="path56" /><path
         d="m 2470.67,713.84 v 0 c -30.31,17.519 -59.45,34.371 -83.89,48.5 l 0.1,0.058 83.83,-48.41 c -0.03,-0.097 -0.04,-0.148 -0.04,-0.148"
         style="fill:#4bd5be;fill-opacity:1;fill-rule:nonzero;stroke:none"
         id="path58" /><path
         d="m 2386.78,762.34 c -38.17,22.07 -64.85,37.512 -66.43,38.469 l 66.53,-38.411 -0.1,-0.058"
         style="fill:#4bd2b3;fill-opacity:1;fill-rule:nonzero;stroke:none"
         id="path60" /><path
         d="m 2679.99,515.91 -0.29,0.172 v 76.906 c 0.03,-0.019 0.04,-0.019 0.04,-0.019 l 0.3,0.172 V 515.93 l -0.05,-0.02"
         style="fill:#54d0be;fill-opacity:1;fill-rule:nonzero;stroke:none"
         id="path62" /><path
         d="m 2092.63,1498.27 v -254.45 c 0,-9.87 6.53,-19.74 19.57,-27.27 26.09,-15.07 68.39,-15.07 94.48,0 13.04,7.53 19.56,17.4 19.56,27.27 v 116.37 21.71 116.37 h -133.61"
         style="fill:#ea864e;fill-opacity:1;fill-rule:nonzero;stroke:none"
         id="path64" /><path
         d="m 1229.63,2000.29 v -254.45 c 0,-9.88 6.52,-19.75 19.56,-27.28 26.09,-15.06 68.39,-15.06 94.48,0 13.04,7.53 19.57,17.4 19.57,27.28 v 116.36 21.72 116.37 h -133.61"
         style="fill:#ea864e;fill-opacity:1;fill-rule:nonzero;stroke:none"
         id="path66" /><path
         d="m 2699.51,1849.64 v -254.45 c 0,-9.87 6.52,-19.74 19.56,-27.27 26.09,-15.07 68.39,-15.07 94.48,0 13.04,7.53 19.57,17.4 19.57,27.27 v 116.37 21.72 116.36 h -133.61"
         style="fill:#ea864e;fill-opacity:1;fill-rule:nonzero;stroke:none"
         id="path68" /><path
         d="m 3306.38,2201.01 v -254.45 c 0,-9.87 6.52,-19.74 19.57,-27.27 26.09,-15.06 68.38,-15.06 94.47,0 13.05,7.53 19.57,17.4 19.57,27.27 v 116.37 21.72 116.36 h -133.61"
         style="fill:#ea864e;fill-opacity:1;fill-rule:nonzero;stroke:none"
         id="path70" /><path
         d="m 3474.35,2207.89 -1366.79,-789.12 -966.09,557.77 1366.8,789.12 966.08,-557.77"
         style="fill:#ffc892;fill-opacity:1;fill-rule:nonzero;stroke:none"
         id="path72" /><path
         d="m 1141.47,1976.54 v -67.76 l 966.09,-557.77 v 67.76 l -966.09,557.77"
         style="fill:#ffa285;fill-opacity:1;fill-rule:nonzero;stroke:none"
         id="path74" /><path
         d="m 2875.72,1862.27 -924.49,514.03 -112.05,-64.38 896.12,-530.72 140.42,81.07"
         style="fill:#ffe9b8;fill-opacity:1;fill-rule:nonzero;stroke:none"
         id="path76" /><path
         d="m 1679.99,2286.43 100.75,59.19 954.56,-564.42 -128.06,-73.94 -927.25,579.17"
         style="fill:#ffd6aa;fill-opacity:1;fill-rule:nonzero;stroke:none"
         id="path78" /><path
         d="m 1521.16,2195.76 158.83,90.67 927.25,-579.17 -102.98,-59.45 -983.1,547.95"
         style="fill:#f2b17c;fill-opacity:1;fill-rule:nonzero;stroke:none"
         id="path80" /><path
         d="m 1416.34,2134.22 907.79,-590.41 -134.42,-78.64 -916.84,587.24 143.47,81.81"
         style="fill:#ffe9b8;fill-opacity:1;fill-rule:nonzero;stroke:none"
         id="path82" /><path
         d="m 1272.87,2052.41 916.84,-587.24 -82.15,-46.4 -966.09,557.77 131.4,75.87"
         style="fill:#ffc892;fill-opacity:1;fill-rule:nonzero;stroke:none"
         id="path84" /><path
         d="m 2790.96,2706.68 v -162.65 c 0,-4.32 2.85,-8.64 8.56,-11.94 11.43,-6.6 29.96,-6.6 41.38,0 5.71,3.3 8.57,7.62 8.57,11.94 v 139.85 l -58.51,22.8"
         style="fill:#ce6029;fill-opacity:1;fill-rule:nonzero;stroke:none"
         id="path86" /><path
         d="m 2522.17,2863.42 v -162.65 c 0,-4.32 2.86,-8.65 8.57,-11.94 11.42,-6.6 29.95,-6.6 41.37,0 5.72,3.29 8.57,7.62 8.57,11.94 v 159.66 l -58.51,2.99"
         style="fill:#ce6029;fill-opacity:1;fill-rule:nonzero;stroke:none"
         id="path88" /><path
         d="m 3059.74,2549.94 v -162.65 c 0,-4.32 2.86,-8.64 8.57,-11.94 11.43,-6.59 29.95,-6.59 41.38,0 5.71,3.3 8.57,7.62 8.57,11.94 v 139.85 l -58.52,22.8"
         style="fill:#ce6029;fill-opacity:1;fill-rule:nonzero;stroke:none"
         id="path90" /><path
         d="m 3353.82,2413.41 c -0.12,0.08 -113.85,65.75 -263.1,151.94 v 0.12 c -107.81,62.23 -472.22,273.08 -592.78,342.81 l -0.98,0.59 c -3.79,1.98 -9.24,1.46 -15.32,-2.05 -3.9,-2.25 -7.55,-5.44 -10.66,-9.12 l -1.96,-2.56 -0.96,-1.25 c -2.49,-3.62 -4.4,-7.52 -5.61,-11.36 l -0.38,-1.07 -0.26,-1.27 c -0.24,-0.95 -0.48,-1.92 -0.61,-2.85 l 10.62,-15.11 2.33,-3.28 c 113.69,-65.82 399.4,-231.25 437.44,-253.23 v -0.08 c 171.87,-99.25 331.34,-191.28 387.93,-223.95 22.93,13.26 40.76,23.56 54.65,31.53 l -0.35,0.19"
         style="fill:#ea864e;fill-opacity:1;fill-rule:nonzero;stroke:none"
         id="path92" /><path
         d="m 1521.16,2195.76 983.1,-547.95 -180.13,-104 -907.79,590.41 104.82,61.54"
         style="fill:#ffc892;fill-opacity:1;fill-rule:nonzero;stroke:none"
         id="path94" /><path
         d="m 3005.52,1937.19 -129.8,-74.9 -334.92,186.18 c 21.94,31.85 31.45,65.83 28.53,99.57 v 76.36 l 0.32,1.93 435.87,-289.14"
         style="fill:#f2b17c;fill-opacity:1;fill-rule:nonzero;stroke:none"
         id="path96" /><path
         d="m 1447.8,2316.71 v -214.5 c 0,-4.33 2.85,-8.65 8.56,-11.95 11.43,-6.59 29.96,-6.59 41.38,0 5.71,3.3 8.57,7.62 8.57,11.95 v 214.5 h -58.51"
         style="fill:#ce6029;fill-opacity:1;fill-rule:nonzero;stroke:none"
         id="path98" /><path
         d="m 2567.08,2906.78 c 0,-5.56 -2.21,-9.31 -5.76,-11.01 -0.16,-0.08 -19.77,-11.36 -165.35,-95.42 -187.29,-108.13 -962.23,-554.77 -1155.4,-666.13 -26.16,15.11 -45.06,26.04 -54.65,31.53 147.39,85 1002.87,578.17 1210.05,697.74 11.25,6.51 21.59,12.43 31.02,17.88 22.93,13.26 40.76,23.56 54.65,31.53 46.29,26.71 48.39,27.9 48.51,27.98 3.78,2.6 9.66,2.33 16.25,-1.46 11.45,-6.63 20.68,-21.23 20.68,-32.64"
         style="fill:#ea864e;fill-opacity:1;fill-rule:nonzero;stroke:none"
         id="path100" /><path
         d="m 2569.87,2414.95 616.37,-373.4 -180.72,-104.36 -435.87,289.14 0.22,188.62"
         style="fill:#ffc892;fill-opacity:1;fill-rule:nonzero;stroke:none"
         id="path102" /><path
         d="m 2567.08,2507.12 739.3,-396.21 -120.14,-69.36 -616.37,373.4 -2.79,92.17"
         style="fill:#ffae64;fill-opacity:1;fill-rule:nonzero;stroke:none"
         id="path104" /><path
         d="m 2569.65,2623.03 857.67,-442.29 -120.94,-69.83 -739.3,396.21 2.57,115.91"
         style="fill:#ffe9b8;fill-opacity:1;fill-rule:nonzero;stroke:none"
         id="path106" /><path
         d="m 2540.8,2048.47 c -20.01,-29.04 -50.4,-56.31 -91.16,-79.83 -98.97,-57.14 -235.91,-79.01 -363.89,-65.59 -4.22,0.44 -8.44,0.67 -12.62,0.67 -8.18,0 -16.27,-0.83 -24.2,-2.52 -11.95,-2.45 -23.48,-6.83 -34.17,-12.99 l -99.88,57.66 -85.01,49.05 -80.85,46.68 c 9.31,5.37 14.75,15.2 14.75,25.34 0,3.75 -0.75,7.58 -2.33,11.21 -6.59,15.15 -10.57,30.62 -11.91,46.17 h -0.51 v 723.72 h 820.31 v -700 c 2.92,-33.74 -6.59,-67.72 -28.53,-99.57"
         style="fill:#ffe6d9;fill-opacity:1;fill-rule:nonzero;stroke:none"
         id="path108" /><path
         d="m 2532.11,2445.24 c 0,-76.28 -52.01,-170.44 -122.49,-229.63 -5.56,-4.7 -11.33,-9.16 -17.13,-13.34 l -0.47,-0.36 c -7.89,-5.76 -15.9,-10.97 -24.15,-15.7 -21.67,-12.51 -42.35,-20.25 -61.25,-23.56 -13.22,-2.33 -25.61,-2.49 -36.86,-0.56 -10.81,1.78 -20.6,5.53 -29.12,11.05 -23.13,14.92 -36.98,43.06 -36.98,82.44 0,90.69 73.52,206.67 164.21,259 2.05,1.18 4.06,2.33 6.07,3.39 6.12,3.36 12.12,6.28 18.08,8.8 5.96,2.57 11.88,4.78 17.6,6.59 1.42,0.44 2.8,0.87 4.18,1.27 13.74,3.94 26.72,5.68 38.67,5.36 16.19,-0.39 30.47,-4.53 42.39,-12.15 4.58,-2.92 8.8,-6.39 12.59,-10.34 1.7,-1.74 3.32,-3.59 4.81,-5.52 12.67,-15.95 19.85,-38.44 19.85,-66.74"
         style="fill:#ffcc83;fill-opacity:1;fill-rule:nonzero;stroke:none"
         id="path110" /><path
         d="m 2532.07,2445.24 c 0,-76.28 -52.01,-170.44 -122.45,-229.59 -5.6,-4.7 -11.33,-9.2 -17.13,-13.34 l -0.47,-0.36 c -1.97,-1.46 -3.95,-2.88 -5.96,-4.26 -1.97,-1.38 -3.98,-2.72 -6,-4.02 -4.02,-2.61 -8.05,-5.09 -12.19,-7.46 -3.75,-2.17 -7.46,-4.19 -11.13,-6.04 -1.19,-0.63 -2.41,-1.22 -3.59,-1.82 l -1.34,-0.63 c -1.03,-0.51 -2.09,-1.02 -3.12,-1.45 -1.58,-0.76 -3.16,-1.47 -4.74,-2.14 -2.6,-1.14 -5.17,-2.17 -7.73,-3.16 l -1.07,-0.39 c -1.5,-0.55 -2.96,-1.11 -4.46,-1.62 -3.31,-1.14 -6.55,-2.17 -9.78,-3.03 -0.99,-0.28 -1.98,-0.56 -2.96,-0.8 l -1.26,-0.31 c -0.99,-0.28 -1.94,-0.51 -2.93,-0.71 -2.4,-0.56 -4.77,-1.07 -7.14,-1.46 -13.22,-2.33 -25.61,-2.45 -36.86,-0.56 -3.74,0.64 -7.38,1.46 -10.89,2.57 -0.99,0.32 -1.93,0.63 -2.92,0.99 -3,1.02 -5.92,2.28 -8.68,3.71 -1.15,0.55 -2.29,1.18 -3.4,1.81 -1.06,0.63 -2.17,1.26 -3.23,1.97 -12.28,7.9 -21.94,19.58 -28.34,34.7 8.37,-11.29 19.34,-19.5 32.32,-24.39 9.4,-3.59 19.93,-5.45 31.3,-5.45 12.11,0 25.22,2.05 39.07,6.28 13.73,4.22 28.17,10.57 43.09,19.17 8.21,4.74 16.26,9.99 24.15,15.75 5.96,4.26 11.84,8.88 17.6,13.69 2.29,1.9 4.54,3.87 6.75,5.84 67.01,59.36 115.71,149.92 115.71,223.76 0,18.47 -3.04,34.49 -8.72,47.79 11.84,-15.82 18.5,-37.69 18.5,-65.04"
         style="fill:#ff9b78;fill-opacity:1;fill-rule:nonzero;stroke:none"
         id="path112" /><path
         d="m 2499.28,2524.72 c -15.98,3.08 -34.29,1.9 -54.18,-3.83 -1.35,-0.35 -2.69,-0.75 -4.03,-1.18 -5.72,-1.82 -11.64,-3.99 -17.6,-6.59 -7.3,-3.12 -14.68,-6.83 -22.3,-11.13 l -1.85,-1.03 c -15.27,-8.84 -30.07,-19.45 -44.12,-31.45 -69.26,-59.27 -120.09,-152.13 -120.09,-227.54 0,-21.27 4.03,-39.23 11.41,-53.63 1.18,-2.37 2.48,-4.66 3.91,-6.83 4.81,-7.61 10.73,-14.01 17.56,-19.14 -39.15,7.42 -64.37,40.1 -64.37,93.25 0,90.65 73.56,206.63 164.25,259 2.05,1.18 4.02,2.21 6.07,3.31 1.31,0.71 2.61,1.46 3.91,2.13 1.74,0.91 3.48,1.78 5.21,2.61 1.42,0.71 2.84,1.38 4.3,2.05 1.54,0.71 3.12,1.38 4.66,2.05 5.96,2.57 11.88,4.78 17.6,6.59 1.42,0.44 2.8,0.87 4.18,1.27 13.74,3.94 26.72,5.68 38.67,5.36 0.91,-0.03 1.78,-0.03 2.65,-0.11 1.3,-0.04 2.61,-0.16 3.87,-0.28 1.5,-0.12 2.96,-0.28 4.42,-0.47 l 1.97,-0.32 c 1.1,-0.16 2.21,-0.36 3.32,-0.59 1.38,-0.28 2.68,-0.56 3.98,-0.91 1.19,-0.32 2.37,-0.63 3.51,-0.99 1.19,-0.35 2.29,-0.71 3.44,-1.1 5.44,-1.9 10.53,-4.38 15.23,-7.38 0.95,-0.59 1.9,-1.26 2.8,-1.93 l 0.83,-0.6 0.79,-0.59"
         style="fill:#ffd3c0;fill-opacity:1;fill-rule:nonzero;stroke:none"
         id="path114" /><path
         d="m 2014.76,1929.93 -265.74,153.43 v 492.86 l 265.75,-155.69 -0.01,-490.6"
         style="fill:#ce6029;fill-opacity:1;fill-rule:nonzero;stroke:none"
         id="path116" /><path
         d="m 1828.69,2248.64 c 0,-7.67 -6.22,-10.29 -13.89,-5.87 -7.67,4.43 -13.88,14.24 -13.88,21.91 0,7.66 6.21,10.29 13.88,5.87 7.67,-4.43 13.89,-14.24 13.89,-21.91"
         style="fill:#81340d;fill-opacity:1;fill-rule:nonzero;stroke:none"
         id="path118" /><path
         d="m 2011.85,2329.35 -191.54,110.59 c 0,52.88 42.88,71.03 95.78,40.48 52.88,-30.53 95.76,-98.19 95.76,-151.07"
         style="fill:#ffcc83;fill-opacity:1;fill-rule:nonzero;stroke:none"
         id="path120" /><path
         d="M 2048.94,2440.26 V 1901.2 c -11.96,-2.45 -23.48,-6.83 -34.17,-12.99 v 532.32 l 34.17,19.73"
         style="fill:#ffd3c0;fill-opacity:1;fill-rule:nonzero;stroke:none"
         id="path122" /><path
         d="m 1749.03,2573.96 34.18,19.74 265.74,-153.42 -34.19,-19.74 -265.73,153.42"
         style="fill:#ffd3c0;fill-opacity:1;fill-rule:nonzero;stroke:none"
         id="path124" /><path
         d="m 2014.76,1913.2 0.01,-24.99 -265.74,153.41 v 25 l 265.73,-153.42"
         style="fill:#ffe6d9;fill-opacity:1;fill-rule:nonzero;stroke:none"
         id="path126" /><path
         d="m 2014.76,1913.2 -265.73,153.42 34.18,19.74 231.55,-133.68 v -39.48"
         style="fill:#ffd3c0;fill-opacity:1;fill-rule:nonzero;stroke:none"
         id="path128" /><path
         d="m 1757.06,2567.05 v -505.07 l 34.19,19.74 v 467.86 l -34.19,17.47"
         style="fill:#ffb7ab;fill-opacity:1;fill-rule:nonzero;stroke:none"
         id="path130" /><path
         d="m 1749.03,2571.69 8.03,-4.64 v -505.07 l -8.03,4.64 v 505.07"
         style="fill:#ffe6d9;fill-opacity:1;fill-rule:nonzero;stroke:none"
         id="path132" /><path
         d="m 2006.73,2422.91 8.03,-4.64 V 1913.2 l -8.03,4.64 v 505.07"
         style="fill:#ffe6d9;fill-opacity:1;fill-rule:nonzero;stroke:none"
         id="path134" /><path
         d="m 1749.03,2567.05 265.73,-154.75 v 8.24 l -265.73,153.42 v -6.91"
         style="fill:#ffe6d9;fill-opacity:1;fill-rule:nonzero;stroke:none"
         id="path136" /><path
         d="m 2630.18,2843.58 c -0.16,-6.7 -0.79,-13.45 -1.9,-20.12 -9.51,-61.17 -54.81,-120.8 -135.9,-167.6 -183.87,-106.2 -481.97,-106.2 -665.83,0 -91.95,53.03 -137.88,122.61 -137.88,192.14 0,1.5 0.04,3 0.08,4.46 0.86,31.41 11.13,62.79 30.7,92.46 l 0.16,0.28 c 2.44,3.67 5.01,7.3 7.73,10.93 l 85.64,121.66 0.08,0.05 27.54,39.14 64.45,91.6 200.11,284.21 h 108.61 l 260.61,-370.16 16.97,-24.11 29.83,-42.35 v -0.08 l 10.62,-15.07 2.32,-3.28 22.97,-32.6 34.61,-49.13 c 2.65,-3.59 5.13,-7.14 7.5,-10.69 l 0.28,-0.4 c 6.47,-9.78 11.88,-19.77 16.29,-29.83 10.31,-23.44 15.12,-47.51 14.41,-71.51"
         style="fill:#ff953e;fill-opacity:1;fill-rule:nonzero;stroke:none"
         id="path138" /><path
         d="m 2235.97,3610.62 h -153.04 l 22.2,-117.83 c 1.9,-8.23 5.31,-16.05 15.91,-22.17 21.21,-12.25 55.6,-12.25 76.82,0 10.6,6.12 14.14,14.25 15.91,22.17 l 22.2,117.83"
         style="fill:#ffe574;fill-opacity:1;fill-rule:nonzero;stroke:none"
         id="path140" /><path
         d="m 2213.56,3641.86 c 29.88,-17.26 29.88,-45.23 0,-62.48 -29.89,-17.25 -78.33,-17.25 -108.22,0 -29.88,17.25 -29.88,45.22 0,62.48 29.89,17.25 78.33,17.25 108.22,0"
         style="fill:#ffe574;fill-opacity:1;fill-rule:nonzero;stroke:none"
         id="path142" /><path
         d="m 2082.93,3610.62 -10.77,32.33 10.77,-4.05 15.31,21.39 16.35,-13.88 15.13,23.13 12.64,-15.89 23.33,15.89 7.51,-15.48 23.97,47.6 11.43,-57.2 20.94,11.68 3.43,-33.28 -150.04,-12.24"
         style="fill:#ffe574;fill-opacity:1;fill-rule:nonzero;stroke:none"
         id="path144" /><path
         d="m 1555.41,1918.23 v -162.64 c 0,-4.33 2.85,-8.65 8.57,-11.94 11.42,-6.6 29.95,-6.6 41.37,0 5.71,3.29 8.57,7.61 8.57,11.94 v 162.64 h -58.51"
         style="fill:#ce6029;fill-opacity:1;fill-rule:nonzero;stroke:none"
         id="path146" /><path
         d="m 1377.89,2020.1 v -162.64 c 0,-4.32 2.85,-8.65 8.57,-11.95 11.42,-6.59 29.95,-6.59 41.37,0 5.72,3.3 8.57,7.63 8.57,11.95 v 162.64 h -58.51"
         style="fill:#ce6029;fill-opacity:1;fill-rule:nonzero;stroke:none"
         id="path148" /><path
         d="m 1200.37,2121.97 v -162.64 c 0,-4.33 2.85,-8.65 8.57,-11.95 11.42,-6.59 29.95,-6.59 41.37,0 5.72,3.3 8.58,7.62 8.58,11.95 v 162.64 h -58.52"
         style="fill:#ce6029;fill-opacity:1;fill-rule:nonzero;stroke:none"
         id="path150" /><path
         d="m 1672.38,1877.19 c 0,-11.4 -9.28,-26.04 -20.68,-32.64 -6.04,-3.43 -11.41,-3.98 -15.2,-2.05 l -1.1,0.63 -1.38,0.79 c -0.2,0.12 -195.26,112.71 -409.67,236.51 v 0.07 c -47.67,27.55 -76.6,44.24 -76.67,44.28 -3.55,1.66 -5.77,5.45 -5.77,11.01 0,11.41 9.24,26.01 20.68,32.64 6.59,3.79 12.47,4.06 16.26,1.42 0.04,0 2.45,-1.42 7.07,-4.1 9.59,-5.49 28.49,-16.42 54.65,-31.53 40.02,-23.05 96.88,-55.88 162.87,-93.97 v -0.12 c 149.24,-86.18 262.98,-151.85 263.14,-151.93 l 1.34,-0.79 c 2.8,-1.89 4.46,-5.41 4.46,-10.22"
         style="fill:#ea864e;fill-opacity:1;fill-rule:nonzero;stroke:none"
         id="path152" /><path
         d="m 1673.74,1876.4 c 0,-11.42 -9.26,-26.03 -20.69,-32.63 -11.43,-6.6 -20.69,-2.68 -20.69,8.74 0,11.43 9.26,26.04 20.69,32.64 11.43,6.59 20.69,2.68 20.69,-8.75"
         style="fill:#e8b49a;fill-opacity:1;fill-rule:nonzero;stroke:none"
         id="path154" /><path
         d="m 2070.99,1673.34 v -214.5 c 0,-4.32 2.86,-8.65 8.58,-11.95 11.42,-6.59 29.94,-6.59 41.37,0 5.71,3.3 8.57,7.63 8.57,11.95 v 214.5 h -58.52"
         style="fill:#ce6029;fill-opacity:1;fill-rule:nonzero;stroke:none"
         id="path156" /><path
         d="m 2320.32,1817.05 v -214.51 c 0,-4.32 2.86,-8.64 8.57,-11.94 11.43,-6.6 29.95,-6.6 41.38,0 5.71,3.3 8.57,7.62 8.57,11.94 v 214.51 h -58.52"
         style="fill:#ce6029;fill-opacity:1;fill-rule:nonzero;stroke:none"
         id="path158" /><path
         d="m 2569.65,1960.75 v -214.5 c 0,-4.32 2.86,-8.65 8.57,-11.95 11.42,-6.59 29.95,-6.59 41.38,0 5.71,3.3 8.56,7.63 8.56,11.95 v 214.5 h -58.51"
         style="fill:#ce6029;fill-opacity:1;fill-rule:nonzero;stroke:none"
         id="path160" /><path
         d="m 2818.98,2104.45 v -214.5 c 0,-4.32 2.85,-8.64 8.57,-11.94 11.42,-6.6 29.95,-6.6 41.37,0 5.72,3.3 8.57,7.62 8.57,11.94 v 214.5 h -58.51"
         style="fill:#ce6029;fill-opacity:1;fill-rule:nonzero;stroke:none"
         id="path162" /><path
         d="m 3068.3,2248.16 v -214.5 c 0,-4.32 2.86,-8.65 8.57,-11.95 11.43,-6.59 29.96,-6.59 41.38,0 5.71,3.3 8.57,7.63 8.57,11.95 v 214.5 h -58.52"
         style="fill:#ce6029;fill-opacity:1;fill-rule:nonzero;stroke:none"
         id="path164" /><path
         d="m 3317.63,2391.86 v -214.49 c 0,-4.33 2.86,-8.65 8.57,-11.95 11.43,-6.6 29.95,-6.6 41.38,0 5.71,3.3 8.57,7.62 8.57,11.95 v 214.49 h -58.52"
         style="fill:#ce6029;fill-opacity:1;fill-rule:nonzero;stroke:none"
         id="path166" /><path
         d="m 3439.61,2407.1 c 0,-5.56 -2.21,-9.31 -5.76,-11.01 -0.16,-0.08 -19.77,-11.37 -165.35,-95.42 -214.4,-123.79 -1198.97,-691.24 -1199.16,-691.36 l -1.38,-0.78 -1.11,-0.64 c -3.79,-1.93 -9.16,-1.38 -15.2,2.06 -11.4,6.59 -20.67,21.23 -20.67,32.63 0,4.82 1.66,8.33 4.46,10.23 l 1.34,0.79 c 0.2,0.11 1004.81,579.23 1231.72,710.21 11.25,6.51 21.59,12.43 31.02,17.88 22.93,13.26 40.76,23.56 54.65,31.53 46.3,26.71 48.39,27.9 48.5,27.98 3.79,2.6 9.67,2.33 16.26,-1.46 11.45,-6.63 20.68,-21.24 20.68,-32.64"
         style="fill:#ea864e;fill-opacity:1;fill-rule:nonzero;stroke:none"
         id="path168" /><path
         d="m 2029.62,1641.81 c 0,-11.43 9.26,-26.04 20.69,-32.64 11.42,-6.59 20.68,-2.68 20.68,8.75 0,11.43 -9.26,26.04 -20.68,32.63 -11.43,6.6 -20.69,2.68 -20.69,-8.74"
         style="fill:#e8b49a;fill-opacity:1;fill-rule:nonzero;stroke:none"
         id="path170" /><path
         d="m 1653.05,1744.85 v -445.34 c 0,-3.98 2.63,-7.96 7.89,-11 10.52,-6.07 27.58,-6.07 38.1,0 5.26,3.04 7.89,7.02 7.89,11 v 445.34 h -53.88"
         style="fill:#ea864e;fill-opacity:1;fill-rule:nonzero;stroke:none"
         id="path172" /><path
         d="m 1699.04,1755.85 c 10.52,-6.07 10.52,-15.92 0,-22 -10.52,-6.07 -27.58,-6.07 -38.1,0 -10.52,6.08 -10.52,15.93 0,22 10.52,6.07 27.58,6.07 38.1,0"
         style="fill:#e8b49a;fill-opacity:1;fill-rule:nonzero;stroke:none"
         id="path174" /><path
         d="m 1897.33,1541.53 c 0,-10.61 -8.61,-24.16 -19.22,-30.3 -4.91,-2.84 -9.38,-3.6 -12.76,-2.54 -1.09,0.65 -2.17,1.27 -3.3,1.92 -37.4,21.59 -76.97,44.44 -117.23,67.7 v 0.07 c -43.89,25.36 -70.53,40.74 -70.6,40.77 -3.27,1.53 -5.31,5.02 -5.31,10.14 0,10.5 8.51,23.95 19.04,30.05 6.07,3.49 11.49,3.74 14.97,1.31 0.04,0 2.26,-1.31 6.51,-3.78 8.83,-5.05 26.24,-15.12 50.33,-29.03 33.03,-19.01 78.52,-45.28 131.36,-75.77 0.91,-0.54 1.85,-1.09 2.8,-1.63 l 0.07,-0.04 c 2.11,-1.85 3.34,-4.87 3.34,-8.87"
         style="fill:#ce6029;fill-opacity:1;fill-rule:nonzero;stroke:none"
         id="path176" /><path
         d="m 1897.33,1407.87 c 0,-10.61 -8.61,-24.16 -19.22,-30.3 -4.91,-2.84 -9.38,-3.6 -12.76,-2.54 -1.09,0.65 -2.17,1.27 -3.3,1.92 -37.4,21.59 -76.97,44.44 -117.23,67.7 v 0.07 c -43.89,25.37 -70.53,40.74 -70.6,40.77 -3.27,1.53 -5.31,5.02 -5.31,10.14 0,10.5 8.51,23.95 19.04,30.05 6.07,3.49 11.49,3.74 14.97,1.31 0.04,0 2.26,-1.31 6.51,-3.78 8.83,-5.05 26.24,-15.12 50.33,-29.03 33.03,-19.01 78.52,-45.28 131.36,-75.77 0.91,-0.54 1.85,-1.09 2.8,-1.63 l 0.07,-0.04 c 2.11,-1.85 3.34,-4.87 3.34,-8.87"
         style="fill:#ce6029;fill-opacity:1;fill-rule:nonzero;stroke:none"
         id="path178" /><path
         d="m 1897.33,1274.21 c 0,-10.61 -8.61,-24.16 -19.22,-30.3 -4.91,-2.84 -9.38,-3.6 -12.76,-2.55 -1.09,0.66 -2.17,1.27 -3.3,1.93 -37.4,21.58 -76.97,44.44 -117.23,67.7 v 0.07 c -43.89,25.36 -70.53,40.73 -70.6,40.77 -3.27,1.53 -5.31,5.01 -5.31,10.14 0,10.5 8.51,23.94 19.04,30.05 6.07,3.49 11.49,3.74 14.97,1.31 0.04,0 2.26,-1.31 6.51,-3.78 8.83,-5.05 26.24,-15.12 50.33,-29.03 33.03,-19.01 78.52,-45.28 131.36,-75.77 0.91,-0.54 1.85,-1.09 2.8,-1.63 l 0.07,-0.04 c 2.11,-1.85 3.34,-4.87 3.34,-8.87"
         style="fill:#ce6029;fill-opacity:1;fill-rule:nonzero;stroke:none"
         id="path180" /><path
         d="m 1861.21,1624.6 v -445.34 c 0,-3.98 2.63,-7.96 7.88,-11 10.53,-6.07 27.58,-6.07 38.1,0 5.26,3.04 7.9,7.02 7.9,11 v 445.34 h -53.88"
         style="fill:#ea864e;fill-opacity:1;fill-rule:nonzero;stroke:none"
         id="path182" /><path
         d="m 1907.19,1635.6 c 10.53,-6.07 10.53,-15.92 0,-22 -10.52,-6.07 -27.57,-6.07 -38.1,0 -10.52,6.08 -10.52,15.93 0,22 10.53,6.07 27.58,6.07 38.1,0"
         style="fill:#e8b49a;fill-opacity:1;fill-rule:nonzero;stroke:none"
         id="path184" /><path
         d="m 2189.71,1465.17 v -66.73 l -82.15,-47.43 v 67.76 l 82.15,46.4"
         style="fill:#ffb069;fill-opacity:1;fill-rule:nonzero;stroke:none"
         id="path186" /><path
         d="m 2324.13,1543.81 v -67.76 l -134.42,-77.61 v 66.73 l 134.42,78.64"
         style="fill:#ffda8f;fill-opacity:1;fill-rule:nonzero;stroke:none"
         id="path188" /><path
         d="m 2324.13,1543.81 v -67.76 l 180.13,104 v 67.76 l -180.13,-104"
         style="fill:#ffb776;fill-opacity:1;fill-rule:nonzero;stroke:none"
         id="path190" /><path
         d="m 2504.26,1580.05 v 67.76 l 102.98,59.45 v -66.65 l -102.98,-60.56"
         style="fill:#ef9d60;fill-opacity:1;fill-rule:nonzero;stroke:none"
         id="path192" /><path
         d="m 2607.24,1640.61 v 66.65 l 128.06,73.94 v -67.76 l -128.06,-72.83"
         style="fill:#ffbd7b;fill-opacity:1;fill-rule:nonzero;stroke:none"
         id="path194" /><path
         d="m 2735.3,1713.44 v 67.76 l 140.42,81.09 v -67.78 l -140.42,-81.07"
         style="fill:#ffdb92;fill-opacity:1;fill-rule:nonzero;stroke:none"
         id="path196" /><path
         d="m 2875.72,1794.51 v 67.78 l 129.8,74.9 v -67.74 l -129.8,-74.94"
         style="fill:#ef9959;fill-opacity:1;fill-rule:nonzero;stroke:none"
         id="path198" /><path
         d="m 3005.52,1869.45 v 67.74 l 180.72,104.36 v -67.76 l -180.72,-104.34"
         style="fill:#ffb471;fill-opacity:1;fill-rule:nonzero;stroke:none"
         id="path200" /><path
         d="m 3186.24,1973.79 v 67.76 l 120.14,69.36 v -68.56 l -120.14,-68.56"
         style="fill:#ff9f50;fill-opacity:1;fill-rule:nonzero;stroke:none"
         id="path202" /><path
         d="m 3306.38,2042.35 v 68.56 l 120.94,69.83 v -67.76 l -120.94,-70.63"
         style="fill:#ffd98d;fill-opacity:1;fill-rule:nonzero;stroke:none"
         id="path204" /><path
         d="m 3427.32,2112.98 v 67.76 l 47.03,27.15 v -67.76 l -47.03,-27.15"
         style="fill:#ffb878;fill-opacity:1;fill-rule:nonzero;stroke:none"
         id="path206" /><path
         d="m 2275.92,2178 c -0.08,0 -0.16,0 -0.24,0 -0.03,0 -0.05,0 -0.08,0 -0.05,0 -0.11,0 -0.17,0 -0.03,0 -0.06,0 -0.08,0 -0.06,0 -0.12,0 -0.18,0 -0.02,0 -0.05,0 -0.07,0 -0.08,0 -0.16,0 -0.24,0 v 0 c -0.09,0 -0.17,0.01 -0.25,0.01 -0.02,0 -0.04,0 -0.06,0 -0.06,0 -0.12,0 -0.18,0 -0.03,0 -0.06,0 -0.08,0 -0.06,0 -0.12,0 -0.18,0 -0.02,0 -0.05,0 -0.07,0 -0.08,0.01 -0.15,0.01 -0.23,0.01 -0.02,0 -0.03,0 -0.04,0 -0.07,0 -0.14,0 -0.21,0 -0.03,0.01 -0.05,0.01 -0.08,0.01 -0.05,0 -0.11,0 -0.16,0 -0.03,0 -0.06,0 -0.09,0 -0.06,0 -0.11,0.01 -0.16,0.01 -0.03,0 -0.06,0 -0.09,0 -0.07,0 -0.14,0 -0.21,0.01 -0.02,0 -0.05,0 -0.08,0 -0.06,0 -0.12,0 -0.18,0 -0.03,0.01 -0.06,0.01 -0.09,0.01 -0.05,0 -0.1,0 -0.14,0 -0.04,0 -0.08,0 -0.11,0.01 -0.05,0 -0.09,0 -0.13,0 -0.04,0 -0.08,0 -0.11,0.01 -0.05,0 -0.08,0 -0.13,0 -0.08,0 -0.16,0.01 -0.24,0.01 -0.02,0 -0.05,0 -0.08,0 -0.05,0.01 -0.1,0.01 -0.15,0.01 -0.02,0 -0.05,0 -0.07,0 -0.06,0.01 -0.11,0.01 -0.16,0.01 -0.02,0 -0.04,0 -0.06,0 -7.27,0.35 -14.18,1.49 -20.61,3.4 v 0 c -1.43,2.17 -2.73,4.46 -3.91,6.83 l 108.68,281.17 c 14.05,12 28.85,22.61 44.12,31.45 l 1.85,1.03 L 2275.92,2178 v 0"
         style="fill:#fff0da;fill-opacity:1;fill-rule:nonzero;stroke:none"
         id="path208" /><path
         d="m 2275.92,2178 c -0.08,0 -0.16,0 -0.24,0 0.08,0 0.16,0 0.24,0 v 0 m -0.32,0 c -0.05,0 -0.11,0 -0.17,0 0.06,0 0.12,0 0.17,0 m -0.25,0 c -0.06,0 -0.12,0 -0.18,0 0.06,0 0.12,0 0.18,0 m -0.25,0 c -0.08,0 -0.16,0 -0.24,0 0.08,0 0.16,0 0.24,0 m -0.24,0 c -0.09,0 -0.17,0.01 -0.25,0.01 0.08,0 0.16,-0.01 0.25,-0.01 m -0.31,0.01 c -0.06,0 -0.12,0 -0.18,0 0.06,0 0.12,0 0.18,0 m -0.26,0 c -0.06,0 -0.12,0 -0.18,0 0.06,0 0.12,0 0.18,0 m -0.25,0 c -0.08,0.01 -0.15,0.01 -0.23,0.01 0.08,0 0.15,0 0.23,-0.01 m -0.27,0.01 c -0.07,0 -0.14,0 -0.21,0 0.07,0 0.14,0 0.21,0 m -0.29,0.01 c -0.05,0 -0.11,0 -0.16,0 0.05,0 0.11,0 0.16,0 m -0.25,0 c -0.06,0 -0.11,0.01 -0.16,0.01 0.05,0 0.1,-0.01 0.16,-0.01 m -0.25,0.01 c -0.07,0 -0.14,0 -0.21,0.01 0.07,-0.01 0.14,-0.01 0.21,-0.01 m -0.29,0.01 c -0.06,0 -0.12,0 -0.18,0 0.06,0 0.12,0 0.18,0 m -0.27,0.01 c -0.05,0 -0.1,0 -0.14,0 0.04,0 0.09,0 0.14,0 m -0.25,0.01 c -0.05,0 -0.09,0 -0.13,0 0.04,0 0.08,0 0.13,0 m -0.24,0.01 c -0.05,0 -0.08,0 -0.13,0 0.05,0 0.08,0 0.13,0 m -0.37,0.01 c -0.02,0 -0.05,0 -0.08,0 0.03,0 0.06,0 0.08,0 m -0.23,0.01 c -0.02,0 -0.05,0 -0.07,0 0.02,0 0.05,0 0.07,0 m -0.23,0.01 c -0.02,0 -0.04,0 -0.06,0 0.02,0 0.04,0 0.06,0"
         style="fill:#ffe1d6;fill-opacity:1;fill-rule:nonzero;stroke:none"
         id="path210" /><path
         d="m 2246.52,2188.34 c 1.18,-2.37 2.48,-4.66 3.91,-6.83 -1.98,0.55 -3.91,1.22 -5.81,1.94 l 1.9,4.89"
         style="fill:#ffffff;fill-opacity:1;fill-rule:nonzero;stroke:none"
         id="path212" /><path
         d="m 2507.45,2517.5 c -1.88,1.95 -3.85,3.79 -5.93,5.5 2.08,-1.7 4.06,-3.55 5.93,-5.5"
         style="fill:#fff7f4;fill-opacity:1;fill-rule:nonzero;stroke:none"
         id="path214" /><path
         d="m 2314.99,2184.28 130.11,336.61 c 0.28,0.08 0.56,0.16 0.83,0.24 0.04,0.01 0.08,0.02 0.11,0.03 12.43,3.5 24.23,5.21 35.22,5.22 0.01,0 0.03,0 0.05,0 0.01,0 0.02,0 0.02,0 6.26,-0.01 12.25,-0.56 17.95,-1.66 v 0 c 0.76,-0.55 1.51,-1.13 2.24,-1.72 2.08,-1.71 4.05,-3.55 5.93,-5.5 v 0 c 1.7,-1.74 3.32,-3.59 4.81,-5.52 l -105.68,-273.25 v 0 c -2.21,-1.97 -4.46,-3.94 -6.75,-5.84 -5.76,-4.81 -11.64,-9.43 -17.6,-13.69 -7.89,-5.76 -15.94,-11.01 -24.15,-15.75 -14.92,-8.6 -29.36,-14.95 -43.09,-19.17"
         style="fill:#fff0da;fill-opacity:1;fill-rule:nonzero;stroke:none"
         id="path216" /><path
         d="m 2445.93,2521.13 c 0.04,0.01 0.08,0.02 0.11,0.03 -0.03,-0.01 -0.07,-0.02 -0.11,-0.03 m 53.35,3.59 c -5.7,1.1 -11.69,1.65 -17.95,1.66 6.26,0 12.25,-0.56 17.95,-1.66 m -18.02,1.66 c 0.01,0 0.03,0 0.05,0 v 0 c -0.02,0 -0.04,0 -0.05,0"
         style="fill:#fff2ec;fill-opacity:1;fill-rule:nonzero;stroke:none"
         id="path218" /><path
         d="m 2532.07,3071.36 -27.74,8.73 -114.76,36.1 v -71.9 l -143.05,62.95 -10.54,-89.7 -153.04,88.35 -18.74,-121.34 -103.91,122.69 -78.41,-56.2 -5.37,74.35 -35.91,-8.41 -41.75,-9.74 106.2,101.34 200.11,284.21 h 108.61 l 143.68,-204.1 174.62,-217.33"
         style="fill:#ffc545;fill-opacity:1;fill-rule:nonzero;stroke:none"
         id="path220" /><path
         d="m 2072.16,3445.93 -120.65,-146.92 64.89,16.76 8.19,-41.89 58.34,71.22 42.21,-71.22 21.05,67.03 73.25,-50.28 16.53,53.07 52.56,-51.67 v 60.05 l 64.25,-19.55 -139.01,160.26 h -108.61 l -33,-46.86"
         style="fill:#ffe574;fill-opacity:1;fill-rule:nonzero;stroke:none"
         id="path222" /><path
         d="m 2628.28,2823.46 -129,39.97 5.33,-22.77 17.56,-75.06 -129.76,71.28 21.24,-132.29 -145.03,98.98 -49.17,-141.52 -98.7,137.45 -98.7,-176.48 -47.35,95.74 -58.61,-67.12 -24.86,83.18 -69.53,-56.31 v 142.94 l -109.63,-19.26 13.42,56.47 -36.74,-6.2 -39.86,-6.7 70.56,99.16 0.16,0.28 c 2.44,3.67 5.01,7.3 7.73,10.93 l 85.64,121.66 0.08,0.05 c 3.47,2.36 110.69,3.04 132.91,-0.05 22.41,-3.11 411.48,-28.25 411.48,-28.25 l 199.64,-44.4 85.84,-98.57 -27.16,8.52 -40.36,12.71 54.77,-84.22 16.85,-25.92 -18.75,5.8"
         style="fill:#ffc545;fill-opacity:1;fill-rule:nonzero;stroke:none"
         id="path224" /><path
         d="m 2215.91,3504.07 -2.13,-11.28 c -1.77,-7.94 -5.33,-16.03 -15.9,-22.18 -21.24,-12.24 -55.61,-12.24 -76.84,0 -10.61,6.15 -14.01,13.96 -15.9,22.18 l -2.13,11.24 c 2.64,-3.12 6.11,-6.04 10.69,-8.68 25.26,-14.6 66.22,-14.6 91.51,0 4.58,2.6 8.06,5.56 10.7,8.72"
         style="fill:#ff953e;fill-opacity:1;fill-rule:nonzero;stroke:none"
         id="path226" /><path
         d="m 2401.17,2991.77 19.22,-142.78 -175.77,118.03 -8.64,-108.08 -105.6,83.66 -98.54,-96.84 -57.02,174.34 -132.52,-88.75 -20.6,69.89 -66.69,-5.8 -23.72,-2.05 51.22,41.12 58.09,82.47 35.91,8.41 5.37,-74.35 78.41,56.2 103.91,-122.69 18.74,121.34 153.04,-88.35 10.54,89.7 143.05,-62.95 v 71.9 l 114.72,-36.1 76.4,-81.97 -23.6,7.02 -44.83,13.3 69.81,-72.09 -180.9,45.42"
         style="fill:#ffe574;fill-opacity:1;fill-rule:nonzero;stroke:none"
         id="path228" /><path
         d="m 2586.3,2683.88 -34.89,11.2 -8.52,-87.09 -50.51,47.87 -3.36,-84.18 -65.31,51.34 -10.06,-55.87 -45.78,37.01 -10.42,-57.42 -57.34,41.83 -20.84,-41.83 -39.62,33.43 -32,-101.38 -51.97,97.43 -31.73,-41.59 -57.38,46.92 -35.6,-65.79 -79.48,87.45 -46.09,-36.14 -47.59,73.52 -26.48,-29.48 -40.1,67.52 -27.98,-16.93 -10.22,49.01 -44.24,-20.28 6.83,49.37 -40.57,-17.37 5.77,43.17 -22.7,-8.6 8.53,48.38 h -22.14 l 44.24,47.08 36.74,6.2 -13.42,-56.47 109.63,19.26 v -142.94 l 69.53,56.31 24.86,-83.18 58.61,67.12 47.35,-95.74 98.7,176.48 98.7,-137.45 49.17,141.52 145.03,-98.98 -21.24,132.29 129.76,-71.28 -17.56,75.06 73.95,-116.61 7.74,-40.17"
         style="fill:#ce6029;fill-opacity:1;fill-rule:nonzero;stroke:none"
         id="path230" /><path
         d="m 2457.19,1100.35 c -43.27,0 -78.35,11.94 -78.35,26.67 0,14.74 35.08,26.68 78.35,26.68 43.28,0 78.36,-11.94 78.36,-26.68 0,-14.73 -35.08,-26.67 -78.36,-26.67"
         style="fill:#f6c14f;fill-opacity:1;fill-rule:nonzero;stroke:none"
         id="path232" /><path
         d="m 2972.96,1408.09 c -32.96,0 -59.68,9.74 -59.68,21.75 0,12.01 26.72,21.74 59.68,21.74 32.95,0 59.67,-9.73 59.67,-21.74 0,-12.01 -26.72,-21.75 -59.67,-21.75"
         style="fill:#f6c14f;fill-opacity:1;fill-rule:nonzero;stroke:none"
         id="path234" /><path
         d="m 3811.98,1817.05 c -32.45,0 -58.76,12.46 -58.76,27.84 0,15.37 26.31,27.83 58.76,27.83 32.46,0 58.77,-12.46 58.77,-27.83 0,-15.38 -26.31,-27.84 -58.77,-27.84"
         style="fill:#f6c14f;fill-opacity:1;fill-rule:nonzero;stroke:none"
         id="path236" /><path
         d="m 3620.45,1977.42 c -25.74,0 -46.6,10.97 -46.6,24.51 0,13.54 20.86,24.51 46.6,24.51 25.73,0 46.59,-10.97 46.59,-24.51 0,-13.54 -20.86,-24.51 -46.59,-24.51"
         style="fill:#f6c14f;fill-opacity:1;fill-rule:nonzero;stroke:none"
         id="path238" /><path
         d="m 3317.88,1465.17 c -21.47,0 -38.88,7.41 -38.88,16.55 0,9.14 17.41,16.55 38.88,16.55 21.47,0 38.87,-7.41 38.87,-16.55 0,-9.14 -17.4,-16.55 -38.87,-16.55"
         style="fill:#f6c14f;fill-opacity:1;fill-rule:nonzero;stroke:none"
         id="path240" /><path
         d="m 3559.5,1803.22 c 17.12,-41.76 -49.65,-108.68 -149.13,-149.47 -99.48,-40.79 -194,-40.01 -211.13,1.75 -17.12,41.75 49.65,108.67 149.13,149.47 99.48,40.78 194,40 211.13,-1.75"
         style="fill:#ebaa44;fill-opacity:1;fill-rule:nonzero;stroke:none"
         id="path242" /><path
         d="m 2680,593.16 -209.29,120.828 c 2.05,6.84 75.09,240.481 502.25,271.442 433.5,31.37 741.54,357.18 844.86,444.39 79.91,67.48 275.96,200.04 506.07,229.2 l 101.09,-58.39 -57.31,-33.1 -186.63,-107.68 -56.24,-32.44 -381.01,-220.04 -124.03,-71.63 -347.18,-200.451 -126.72,-73.168 -9.96,-5.699 -136.58,-78.852 -60.76,-35.129 -135.64,-78.312 -100.68,-58.098 -9.18,-5.332 -13.06,-7.539"
         style="fill:#aef3ec;fill-opacity:1;fill-rule:nonzero;stroke:none"
         id="path244" /><path
         d="m 2680.04,593.141 v 0 l -0.04,0.019 13.06,7.539 -13.02,-7.558 m 122.88,70.988 135.64,78.312 -32.73,-18.929 -102.91,-59.383 m 342.94,197.992 126.72,73.168 -71.45,-41.258 -48.89,-28.261 -6.38,-3.649 m 1221.81,705.409 57.33,33.11 v -0.02 l -57.33,-33.09"
         style="fill:#9ce4e2;fill-opacity:1;fill-rule:nonzero;stroke:none"
         id="path246" /><path
         d="m 2679.71,592.988 c -2.33,1.34 -111.63,64.524 -209.04,120.852 0,0 0.01,0.051 0.04,0.148 L 2680,593.16 l -0.3,-0.172"
         style="fill:#65eadf;fill-opacity:1;fill-rule:nonzero;stroke:none"
         id="path248" /><path
         d="m 2679.74,592.969 c 0,0 -0.01,0 -0.03,0.019 l 0.29,0.172 0.04,-0.019 -0.3,-0.172"
         style="fill:#5ee6dc;fill-opacity:1;fill-rule:nonzero;stroke:none"
         id="path250" /><path
         d="m 2311.07,806.191 -1.39,0.797 -1.77,1.032 h 0.01 l 3.15,-1.829"
         style="fill:#8ee7d9;fill-opacity:1;fill-rule:nonzero;stroke:none"
         id="path252" /><path
         d="m 2320.01,801.031 -8.94,5.16 -3.15,1.829 c 0.27,0.691 44.09,109.8 138.06,109.8 94.27,0 171.79,96.37 266.06,152.93 94.27,56.56 121.86,44.39 204.43,82.95 82.57,38.56 193,160.64 269.77,198.06 76.76,37.42 141.39,47.9 257.83,106.54 116.43,58.65 247.6,185.63 324.46,224.8 73.24,37.33 276.32,117.28 295.3,124.73 L 2319.97,801.012"
         style="fill:#8ed9a7;fill-opacity:1;fill-rule:nonzero;stroke:none"
         id="path254" /><path
         d="m 2319.99,801.02 -10.31,5.968 1.39,-0.797 8.94,-5.16 -0.04,-0.019"
         style="fill:#8ec6a8;fill-opacity:1;fill-rule:nonzero;stroke:none"
         id="path256" /><path
         d="m 2320.28,800.852 v 0 l -0.29,0.168 -0.02,-0.008 1743.86,1006.818 c 0.93,0.37 1.42,0.56 1.42,0.56 L 2320.28,800.859 c 0,0 0,0 0,-0.007 v 0"
         style="fill:#8edcb4;fill-opacity:1;fill-rule:nonzero;stroke:none"
         id="path258" /><path
         d="m 2320.28,800.852 c 0,0.007 0,0.007 0,0.007 L 4065.25,1808.39 v 0 L 2320.28,800.852"
         style="fill:#6cdcc3;fill-opacity:1;fill-rule:nonzero;stroke:none"
         id="path260" /><path
         d="m 2684.47,791.699 c -1.49,0 -2.93,0.789 -3.69,2.192 -1.1,2.039 -0.34,4.578 1.7,5.679 l 50.61,27.352 c 2.01,1.098 4.57,0.348 5.67,-1.692 1.1,-2.039 0.34,-4.582 -1.69,-5.679 l -50.62,-27.352 -1.98,-0.5"
         style="fill:#ffffff;fill-opacity:1;fill-rule:nonzero;stroke:none"
         id="path262" /><path
         d="m 3007.33,828.23 c -1.49,0 -2.93,0.79 -3.68,2.192 -1.1,2.039 -0.34,4.578 1.69,5.68 l 21.33,11.539 c 2.05,1.089 4.58,0.347 5.68,-1.692 1.1,-2.039 0.34,-4.578 -1.69,-5.679 l -21.34,-11.54 -1.99,-0.5"
         style="fill:#ffffff;fill-opacity:1;fill-rule:nonzero;stroke:none"
         id="path264" /><path
         d="m 3473.51,1333.9 c -1.48,0 -2.92,0.79 -3.68,2.19 -1.1,2.03 -0.34,4.58 1.69,5.68 l 17.95,9.7 c 2.03,1.08 4.58,0.35 5.67,-1.69 1.11,-2.03 0.35,-4.57 -1.68,-5.67 l -17.95,-9.71 -2,-0.5"
         style="fill:#ffffff;fill-opacity:1;fill-rule:nonzero;stroke:none"
         id="path266" /><path
         d="m 3393.46,1109.16 c -1.49,0 -2.93,0.79 -3.68,2.2 -1.11,2.03 -0.34,4.57 1.69,5.67 l 50.61,27.35 c 2.01,1.09 4.57,0.36 5.66,-1.69 1.11,-2.04 0.35,-4.58 -1.69,-5.67 l -50.6,-27.36 -1.99,-0.5"
         style="fill:#ffffff;fill-opacity:1;fill-rule:nonzero;stroke:none"
         id="path268" /><path
         d="m 4052.42,1458.18 c -1.49,0 -2.93,0.8 -3.68,2.2 -1.1,2.04 -0.34,4.58 1.69,5.67 l 25.31,13.68 c 2.01,1.09 4.57,0.35 5.66,-1.69 1.11,-2.04 0.35,-4.58 -1.69,-5.68 l -25.3,-13.67 -1.99,-0.51"
         style="fill:#ffffff;fill-opacity:1;fill-rule:nonzero;stroke:none"
         id="path270" /><path
         d="m 3943.33,1662.11 c -1.48,0 -2.92,0.79 -3.68,2.2 -1.1,2.03 -0.34,4.57 1.7,5.67 l 50.6,27.35 c 2.01,1.09 4.58,0.36 5.67,-1.69 1.1,-2.04 0.35,-4.57 -1.69,-5.67 l -50.61,-27.36 -1.99,-0.5"
         style="fill:#ffffff;fill-opacity:1;fill-rule:nonzero;stroke:none"
         id="path272" /><path
         d="m 3767.07,1286.75 c -1.49,0 -2.93,0.8 -3.68,2.2 -1.11,2.04 -0.34,4.57 1.69,5.68 l 50.61,27.35 c 2.01,1.08 4.57,0.35 5.66,-1.69 1.11,-2.04 0.35,-4.58 -1.69,-5.68 l -50.6,-27.35 -1.99,-0.51"
         style="fill:#ffffff;fill-opacity:1;fill-rule:nonzero;stroke:none"
         id="path274" /><path
         d="m 3716.46,1552.43 c -1.49,0 -2.93,0.8 -3.69,2.2 -1.1,2.04 -0.34,4.57 1.7,5.68 l 25.31,13.67 c 2,1.09 4.57,0.35 5.67,-1.69 1.1,-2.04 0.34,-4.57 -1.7,-5.67 l -25.31,-13.68 -1.98,-0.51"
         style="fill:#ffffff;fill-opacity:1;fill-rule:nonzero;stroke:none"
         id="path276" /><path
         d="m 3054.71,1095.48 c -1.49,0 -2.93,0.79 -3.68,2.2 -1.11,2.03 -0.35,4.57 1.68,5.67 l 19.17,10.37 c 2.03,1.08 4.58,0.34 5.68,-1.69 1.1,-2.04 0.34,-4.58 -1.69,-5.68 l -19.17,-10.37 -1.99,-0.5"
         style="fill:#ffffff;fill-opacity:1;fill-rule:nonzero;stroke:none"
         id="path278" /><path
         d="m 2695.32,2061.07 -0.05,-0.55 c 13.24,7.16 23.52,17.94 29.04,33.69 1.99,5.61 3.36,11.84 4.04,18.77 l 0.16,2.19 c 0.45,6.16 1.01,11.63 1.62,16.75 3.43,29.36 8.27,47.12 1.24,111.23 -0.48,4.15 -0.98,8.48 -1.53,13.03 -0.43,3.49 -0.88,7.08 -1.38,10.81 -0.74,5.76 -1.58,11.81 -2.48,18.21 -0.24,1.58 -0.48,3.17 -0.72,4.81 h -32.5 c 1.14,-7.56 2.17,-15.17 3.09,-22.83 l 0.18,-1.54 c 0.64,-5.34 1.22,-10.7 1.75,-16.06 0.26,-2.75 0.53,-5.5 0.76,-8.28 0.24,-2.74 0.48,-5.52 0.69,-8.29 0.21,-2.78 0.43,-5.53 0.61,-8.3 0.19,-2.78 0.37,-5.58 0.53,-8.35 0.5,-8.33 0.87,-16.71 1.11,-25.08 0.08,-2.8 0.16,-5.58 0.21,-8.38 0.11,-5.55 0.16,-11.1 0.16,-16.67 v -0.08 c 0,-3.81 -0.03,-7.62 -0.08,-11.42 l -0.05,-2.59 c -0.05,-4.17 -0.16,-8.35 -0.29,-12.53 -0.11,-3.64 -0.24,-7.26 -0.42,-10.91 -0.03,-1.35 -0.08,-2.67 -0.16,-3.99 -0.14,-3.09 -0.32,-6.19 -0.51,-9.28 -0.1,-1.87 -0.21,-3.78 -0.37,-5.65 -0.13,-2.25 -0.29,-4.5 -0.47,-6.74 -0.08,-1.53 -0.22,-3.07 -0.34,-4.57 -0.3,-3.81 -0.62,-7.59 -0.98,-11.37 l -0.06,-0.68 c -0.39,-4.28 -0.84,-8.59 -1.32,-12.85 -0.45,-4.17 -0.95,-8.35 -1.48,-12.5"
         style="fill:#ffc892;fill-opacity:1;fill-rule:nonzero;stroke:none"
         id="path280" /><path
         d="m 2634.06,2290.01 v -241.73 c 22.78,-0.05 44.4,3.15 61.21,12.24 l 0.05,0.55 c 0.53,4.15 1.03,8.33 1.48,12.5 0.48,4.26 0.93,8.57 1.32,12.85 l 0.06,0.68 c 0.36,3.78 0.68,7.56 0.98,11.37 0.12,1.5 0.26,3.04 0.34,4.57 0.18,2.24 0.34,4.49 0.47,6.74 0.16,1.87 0.27,3.78 0.37,5.65 0.19,3.09 0.37,6.19 0.51,9.28 0.08,1.32 0.13,2.64 0.16,3.99 0.18,3.65 0.31,7.27 0.42,10.91 0.13,4.18 0.24,8.36 0.29,12.53 l 0.05,2.59 c 0.05,3.8 0.08,7.61 0.08,11.42 v 0.08 c 0,5.57 -0.05,11.12 -0.16,16.67 -0.05,2.8 -0.13,5.58 -0.21,8.38 -0.24,8.37 -0.61,16.75 -1.11,25.08 -0.16,2.77 -0.34,5.57 -0.53,8.35 -0.18,2.77 -0.4,5.52 -0.61,8.3 -0.21,2.77 -0.45,5.55 -0.69,8.29 -0.23,2.78 -0.5,5.53 -0.76,8.28 -0.53,5.36 -1.11,10.72 -1.75,16.06 l -0.18,1.54 c -0.92,7.66 -1.95,15.27 -3.09,22.83 h -58.7"
         style="fill:#ffe9b8;fill-opacity:1;fill-rule:nonzero;stroke:none"
         id="path282" /><path
         d="m 2572.89,2060.52 c 16.8,-9.09 38.42,-12.29 61.17,-12.24 v 241.73 h -58.66 c -11.23,-74.74 -12.05,-154.07 -2.51,-229.49"
         style="fill:#ffd6aa;fill-opacity:1;fill-rule:nonzero;stroke:none"
         id="path284" /><path
         d="m 2538.48,2130.84 c 0.42,-5.37 0.82,-10.54 1.16,-15.49 l 0.16,-2.37 c 0.72,-7.06 2.11,-13.43 4.15,-19.11 5.57,-15.57 15.78,-26.27 28.94,-33.35 -9.54,75.42 -8.72,154.75 2.51,229.49 h -32.51 c -0.84,-2.62 -1.64,-5.32 -2.32,-8.06 -0.85,-3.28 -1.59,-6.64 -2.25,-10.1 -0.31,-1.64 -0.61,-3.27 -0.85,-4.94 -0.79,-4.68 -1.39,-9.51 -1.9,-14.45 -3.91,-38.93 0.05,-84.73 2.91,-121.62"
         style="fill:#ffc892;fill-opacity:1;fill-rule:nonzero;stroke:none"
         id="path286" /><path
         d="m 2535.57,2252.46 c 2.64,-11.61 12.18,-22.89 28.62,-31.82 39.27,-21.33 102.93,-21.33 142.2,0 12,6.52 20.3,14.3 24.98,22.51 -0.48,4.15 -0.98,8.48 -1.53,13.03 l -0.69,-1.58 c -2.14,-4.55 -5.18,-8.62 -8.72,-12.16 -7.06,-7.14 -15.91,-12.16 -25.03,-16.12 -9.19,-3.96 -18.89,-6.61 -28.7,-8.4 -9.83,-1.83 -19.79,-2.88 -29.81,-2.83 -1.37,0 -2.75,0 -4.17,0.02 -8.62,0.11 -17.23,0.77 -25.72,2.17 -9.88,1.53 -19.6,4.04 -28.91,7.72 -1.16,0.45 -2.35,0.87 -3.51,1.37 l -3.36,1.59 -3.43,1.61 -3.28,1.8 c -4.33,2.51 -8.46,5.39 -12.18,8.75 -3.76,3.32 -7.03,7.21 -9.57,11.57 -1.4,2.43 -3.65,9.28 -5.29,15.22 -0.79,-4.68 -1.39,-9.51 -1.9,-14.45"
         style="fill:#c95039;fill-opacity:1;fill-rule:nonzero;stroke:none"
         id="path288" /><path
         d="m 2538.48,2130.84 c 0.42,-5.37 0.82,-10.54 1.16,-15.49 4.97,-6.02 12.13,-11.7 21.46,-16.64 40.36,-21.33 105.73,-21.33 146.04,0 9.24,4.88 16.35,10.49 21.37,16.46 0.45,6.16 1.01,11.63 1.62,16.75 -2.14,-4.25 -5.13,-8.06 -8.57,-11.41 -7.24,-7.14 -16.33,-12.16 -25.71,-16.12 -9.44,-3.97 -19.4,-6.61 -29.47,-8.41 -10.09,-1.82 -20.34,-2.88 -30.63,-2.83 -1.39,0 -2.82,0 -4.25,0.03 -8.88,0.11 -17.7,0.77 -26.42,2.17 -10.15,1.53 -20.14,4.04 -29.71,7.72 -1.19,0.44 -2.4,0.87 -3.59,1.37 l -3.46,1.58 -3.52,1.62 -3.35,1.79 c -4.44,2.52 -8.7,5.39 -12.53,8.75 -3.86,3.33 -7.22,7.21 -9.83,11.58 l -0.61,1.08"
         style="fill:#c95039;fill-opacity:1;fill-rule:nonzero;stroke:none"
         id="path290" /><path
         d="m 2543.95,2093.87 c 12.68,-35.47 49.58,-45.67 90.11,-45.59 40.68,-0.08 77.67,10.18 90.25,45.93 -1.87,-3.27 -4.23,-6.26 -6.87,-8.96 -6.89,-7.13 -15.54,-12.15 -24.5,-16.12 -8.98,-3.96 -18.47,-6.6 -28.06,-8.4 -9.62,-1.82 -19.4,-2.88 -29.2,-2.83 -1.32,0 -2.7,0 -4.05,0.03 -8.45,0.11 -16.85,0.77 -25.18,2.16 -9.67,1.54 -19.19,4.05 -28.31,7.72 -1.13,0.45 -2.29,0.87 -3.43,1.38 l -3.28,1.58 -3.35,1.61 -3.2,1.8 c -4.23,2.51 -8.3,5.39 -11.95,8.75 -3.49,3.17 -6.55,6.84 -8.98,10.94"
         style="fill:#c95039;fill-opacity:1;fill-rule:nonzero;stroke:none"
         id="path292" /><path
         d="m 2542.95,2284.88 c 0.05,-0.98 0.16,-1.98 0.29,-2.96 1.74,-11.91 10.51,-23.6 26.34,-32.74 35.63,-20.56 93.37,-20.56 128.96,0 15.83,9.14 24.63,20.83 26.38,32.74 0.13,0.98 0.24,1.96 0.26,2.93 0.74,13.98 -8.14,28.1 -26.64,38.77 -35.59,20.56 -93.33,20.56 -128.96,0 -18.44,-10.65 -27.35,-24.76 -26.63,-38.74"
         style="fill:#b3ed62;fill-opacity:1;fill-rule:nonzero;stroke:none"
         id="path294" /><path
         d="m 2636.4,2233.81 2.19,0.06 c -0.99,-0.03 -2.01,-0.03 -2.99,-0.06 h 0.8 m -95.39,50.97 0.16,-1.54 c 0.55,-4.53 2.03,-8.93 4.22,-12.85 2.43,-4.34 5.58,-8.23 9.15,-11.56 3.58,-3.36 7.55,-6.25 11.68,-8.75 l 3.15,-1.79 3.29,-1.63 3.21,-1.57 c 1.11,-0.5 2.25,-0.93 3.36,-1.39 8.93,-3.67 18.28,-6.16 27.71,-7.71 4.65,-0.8 9.33,-1.38 14.02,-1.66 2.52,-0.22 5.02,-0.37 7.55,-0.43 1.02,-0.03 2.07,-0.06 3.08,-0.06 -8.23,0.18 -16.46,1.01 -24.59,2.46 -9.4,1.73 -18.59,4.69 -27.25,8.6 -1.08,0.49 -2.19,0.96 -3.23,1.48 l -3.12,1.73 -3.14,1.69 -2.99,1.91 c -3.95,2.62 -7.64,5.61 -10.94,8.94 -6.5,6.63 -11.28,15.26 -11.47,24.35 -0.03,0.98 0,2 0.12,2.99 l 0.13,0.98 v 0.03 l 0.09,0.84 c 1.05,7.24 4.84,13.96 10.02,19.29 6.32,6.63 14.42,11.44 22.87,15.17 8.47,3.72 17.54,6.28 26.66,7.95 2.31,0.46 4.59,0.92 6.9,1.14 2.34,0.27 4.62,0.74 6.97,0.86 l 6.96,0.59 7,0.21 c 18.64,0.19 37.57,-2.46 54.8,-9.52 1.04,-0.46 2.15,-0.87 3.17,-1.33 l 3.14,-1.57 3.12,-1.51 3.02,-1.69 c 3.97,-2.38 7.73,-5.09 11.06,-8.2 6.23,-5.77 11.1,-13.26 12.24,-21.58 l 0.15,-1.32 0.06,-0.5 c 0.44,-5.02 -0.61,-10.01 -2.68,-14.67 -1.66,-3.76 -3.97,-7.3 -6.72,-10.41 -4.19,-4.84 -9.24,-8.88 -14.73,-12.3 -2.59,-1.63 -5.24,-3.11 -7.98,-4.5 -10.02,-4.78 -20.74,-8.01 -31.71,-9.93 -6.91,-1.2 -13.94,-1.91 -20.93,-2.15 l 1.97,0.03 c 7.92,0.25 15.84,1.23 23.61,2.71 9.4,1.82 18.71,4.47 27.49,8.42 8.75,3.97 17.26,9 24.01,16.11 3.39,3.55 6.32,7.62 8.35,12.18 1.2,2.52 2.01,5.24 2.5,8.04 0.37,2.19 0.55,4.41 0.52,6.63 -0.21,10.32 -5.58,19.82 -12.54,26.9 -7,7.22 -15.6,12.49 -24.57,16.58 -18.03,8.27 -37.84,11.41 -57.42,11.5 -19.63,-0.09 -39.38,-4.03 -57.23,-12.67 -8.81,-4.46 -17.19,-10.11 -23.85,-17.69 -6.63,-7.45 -11.19,-17.53 -10.42,-27.83"
         style="fill:#e86c4f;fill-opacity:1;fill-rule:nonzero;stroke:none"
         id="path296" /><path
         d="m 2696.87,2305.38 c 0,9.15 -12.48,16.57 -27.88,16.57 -15.4,0 -27.88,-7.42 -27.88,-16.57 0,-2.05 0.66,-4 1.8,-5.81 -1.63,0.12 -3.29,0.2 -4.97,0.2 -4.16,0 -8.17,-0.4 -11.98,-1.09 0.29,0.94 0.47,1.9 0.47,2.88 0,9.04 -12.62,16.37 -28.18,16.37 -15.56,0 -28.18,-7.33 -28.18,-16.37 0,-9.03 12.62,-16.36 28.18,-16.36 l 1.53,0.05 c -3.11,-3.73 -4.89,-7.96 -4.89,-12.46 0,-14.9 19.28,-26.98 43.05,-26.98 23.77,0 43.04,12.08 43.04,26.98 0,6.07 -3.23,11.65 -8.62,16.15 13.8,0.99 24.51,7.97 24.51,16.44"
         style="fill:#a0d33c;fill-opacity:1;fill-rule:nonzero;stroke:none"
         id="path298" /><path
         d="m 2581.33,2566.18 c 0.13,-3.3 0.42,-6.62 0.76,-9.94 0.75,-7.3 1.94,-14.63 3.02,-21.95 0.66,-5.31 2.2,-10.52 3.24,-15.8 0.57,-2.51 1.06,-5.07 1.57,-7.52 0.54,-2.84 1.08,-5.56 1.64,-8.07 2.44,-11.86 7.51,-23.11 11.58,-34.46 2.71,-7.64 5.03,-15.32 5.8,-23.28 0.32,-4.47 0.76,-8.89 1.2,-13.37 1.56,-15.37 3.4,-30.71 4.25,-46.26 0.46,-6.62 0.93,-13.24 1.28,-19.91 0.18,-3.37 0.35,-6.73 0.41,-10.08 0.64,-10.04 0.89,-20.12 1.14,-30.13 l 0.27,-9.8 0.48,-20.41 c 0.1,-4.63 0.13,-9.35 0.17,-14.03 -0.02,-9.06 6.82,-16.63 15.82,-17.69 1.14,-0.13 2.3,-0.14 3.41,0.01 8.22,0.58 15.1,6.86 16.39,15.29 2.07,14.6 3.41,29.13 4,43.66 0.54,11.34 0.59,22.71 0.31,34.04 -0.26,10.79 -0.91,21.54 -1.82,32.37 -2.03,19.47 -4.43,39.07 -9.23,58.16 -0.39,1.68 -0.83,3.35 -1.28,5.03 -1.43,5.2 -3.2,10.31 -5.08,15.37 -1.3,3.82 -2.71,7.64 -4.24,11.37 -0.47,1.23 -0.99,2.47 -1.52,3.72 -2.11,4.97 -4.1,9.98 -6.27,14.9 -2.28,4.86 -4.73,9.63 -6.9,14.49 -0.91,2.04 -1.78,4.02 -2.59,5.88 -1.2,2.77 -2.3,5.47 -3.28,8.23 l -2.53,6.97 c -0.85,2.3 -1.86,4.62 -2.2,7.06 l -3.04,14.64 c -0.38,1.84 -0.59,3.78 -0.69,5.65 l -0.16,1.77 c -0.18,2.48 -0.41,4.97 -0.53,7.45 l -0.3,7.43 c -0.01,2.48 0.2,4.99 0.3,7.52 0.31,4.98 0.29,9.92 0.93,14.88 l 2.08,14.82 c 0.51,3.65 1.33,7.22 2.05,10.81 0.3,1.3 0.55,2.6 0.74,3.91 1.38,7.16 2.98,14.37 4.75,21.51 7.85,31.6 19.42,62.75 33.61,92.08 l -12.1,7.68 c -7.06,-11.04 -13.15,-22.31 -18.55,-33.9 -3.49,-7.52 -6.72,-15.18 -9.73,-22.96 -4.58,-11.8 -10.41,-23.25 -15.04,-35 -3.13,-7.82 -5.66,-15.85 -6.96,-24.23 -0.42,-2.45 -0.86,-5 -1.3,-7.56 -3.3,-19.41 -7.38,-41.63 -5.86,-60.35"
         style="fill:#b45b4d;fill-opacity:1;fill-rule:nonzero;stroke:none"
         id="path300" /><path
         d="m 2587.19,2626.53 24.58,-1.53 c 0.3,1.3 0.55,2.6 0.74,3.91 1.38,7.16 2.98,14.37 4.75,21.51 l -21.81,7.9 c -3.13,-7.82 -5.66,-15.85 -6.96,-24.23 -0.42,-2.45 -0.86,-5 -1.3,-7.56"
         style="fill:#b23b50;fill-opacity:1;fill-rule:nonzero;stroke:none"
         id="path302" /><path
         d="m 2582.09,2556.24 c 0.75,-7.3 1.94,-14.63 3.02,-21.95 0.66,-5.31 2.2,-10.52 3.24,-15.8 0.57,-2.51 1.06,-5.07 1.57,-7.52 9.47,2.16 19.79,4.53 29.22,6.8 -1.2,2.77 -2.3,5.47 -3.28,8.23 l -2.53,6.97 c -0.85,2.3 -1.86,4.62 -2.2,7.06 l -3.04,14.64 c -0.38,1.84 -0.59,3.78 -0.69,5.65 l -25.31,-4.08"
         style="fill:#b23b50;fill-opacity:1;fill-rule:nonzero;stroke:none"
         id="path304" /><path
         d="m 2603.14,2468.44 c 2.71,-7.64 5.03,-15.32 5.8,-23.28 0.32,-4.47 0.76,-8.89 1.2,-13.37 l 36.88,15.22 c -0.39,1.68 -0.83,3.35 -1.28,5.03 -1.43,5.2 -3.2,10.31 -5.08,15.37 -1.3,3.82 -2.71,7.64 -4.24,11.37 l -33.28,-10.34"
         style="fill:#b23b50;fill-opacity:1;fill-rule:nonzero;stroke:none"
         id="path306" /><path
         d="m 2615.67,2365.62 c 0.18,-3.37 0.35,-6.73 0.41,-10.08 0.64,-10.04 0.89,-20.12 1.14,-30.13 l 0.27,-9.8 40.27,6.83 c 0.54,11.34 0.59,22.71 0.31,34.04 -11.87,2.56 -27.54,5.9 -42.4,9.14"
         style="fill:#b23b50;fill-opacity:1;fill-rule:nonzero;stroke:none"
         id="path308" /><path
         d="m 2635.71,2263.38 c -0.58,0 -1.17,0.04 -1.75,0.1 -9,1.06 -15.84,8.63 -15.82,17.69 -0.04,4.68 -0.07,9.4 -0.17,14.03 l -0.48,20.41 19.17,3.25 c 0.76,-19.9 0.96,-38.72 0.71,-55.37 v 0 c -0.55,-0.08 -1.1,-0.11 -1.66,-0.11 m -1.5,98.23 c -6.1,1.31 -12.39,2.67 -18.54,4.01 v 0 c -0.35,6.67 -0.82,13.29 -1.28,19.91 -0.85,15.55 -2.69,30.89 -4.25,46.26 l 15.03,6.2 c 4.13,-24.56 7.07,-50.7 9.04,-76.38 m -31.07,106.83 v 0 c -4.07,11.35 -9.14,22.6 -11.58,34.46 -0.56,2.51 -1.1,5.23 -1.64,8.07 5.01,1.14 10.25,2.34 15.47,3.55 4.88,-12.19 9.1,-26.21 12.73,-41.43 l -14.98,-4.65 m -21.05,87.8 v 0 c -0.34,3.32 -0.63,6.64 -0.76,9.94 -0.22,2.78 -0.32,5.63 -0.32,8.55 0,16.71 3.37,35.27 6.18,51.8 v 0 l 5.49,-0.34 c -4.69,-19.21 -6.74,-42.55 -1.67,-68.51 l -8.92,-1.44 m 20.75,99.41 -7.39,2.67 c 4.63,11.75 10.46,23.2 15.04,35 3.01,7.78 6.24,15.44 9.73,22.96 l 8.47,-3.44 -11.21,-31.61 c 0,0 -7.31,-9.33 -14.64,-25.58"
         style="fill:#9f4e4c;fill-opacity:1;fill-rule:nonzero;stroke:none"
         id="path310" /><path
         d="m 2592.68,2626.19 -5.49,0.34 c 0.44,2.56 0.88,5.11 1.3,7.56 1.3,8.38 3.83,16.41 6.96,24.23 v 0 l 7.39,-2.67 c -3.69,-8.18 -7.38,-18.1 -10.16,-29.46"
         style="fill:#9e3b4e;fill-opacity:1;fill-rule:nonzero;stroke:none"
         id="path312" /><path
         d="m 2589.92,2510.97 c -0.51,2.45 -1,5.01 -1.57,7.52 -1.04,5.28 -2.58,10.49 -3.24,15.8 -1.08,7.32 -2.27,14.65 -3.02,21.95 v 0 l 8.92,1.44 c 2.3,-11.79 6.06,-24.12 11.72,-36.85 0.91,-2.04 1.79,-4.15 2.66,-6.31 -5.22,-1.21 -10.46,-2.41 -15.47,-3.55 v 0"
         style="fill:#9e3b4e;fill-opacity:1;fill-rule:nonzero;stroke:none"
         id="path314" /><path
         d="m 2610.14,2431.79 c -0.44,4.48 -0.88,8.9 -1.2,13.37 -0.77,7.96 -3.09,15.64 -5.8,23.28 v 0 l 14.98,4.65 c 2.66,-11.14 5,-22.93 7.05,-35.1 l -15.03,-6.2"
         style="fill:#9e3b4e;fill-opacity:1;fill-rule:nonzero;stroke:none"
         id="path316" /><path
         d="m 2617.49,2315.61 -0.27,9.8 c -0.07,2.9 -0.14,5.8 -0.22,8.71 -0.08,2.64 -0.16,5.29 -0.26,7.93 -0.16,4.5 -0.37,8.99 -0.66,13.49 -0.06,3.35 -0.23,6.71 -0.41,10.08 v 0 c 6.15,-1.34 12.44,-2.7 18.54,-4.01 1.12,-14.52 1.92,-28.9 2.45,-42.75 l -19.17,-3.25"
         style="fill:#9e3b4e;fill-opacity:1;fill-rule:nonzero;stroke:none"
         id="path318" /><path
         d="m 2637.24,2718.57 c 0.77,-2.57 1.55,-5.04 2.4,-7.34 20.57,21.51 42.38,41.63 65.26,60.37 5.5,4.54 11.05,8.98 16.65,13.35 l 6.04,39.46 30.4,-12.94 c 25.84,17.73 52.72,33.68 80.59,48.04 l 1.27,26.52 33.73,-8.98 -0.1,-0.71 c 36.08,16.32 73.52,29.81 112.08,40.25 0,0 -265.22,6.3 -348.32,-198.02"
         style="fill:#95aa3a;fill-opacity:1;fill-rule:nonzero;stroke:none"
         id="path320" /><path
         d="m 2628.84,2718.77 c -0.89,-7.2 -1.94,-14.39 -3.16,-21.56 2.19,-0.14 96.29,24.04 99.18,145.01 0.07,12.53 -1.42,24.76 -4.1,36.53 l -24.97,6.61 21.27,7.13 c -8.52,27.24 -23.09,51.67 -39.47,71.71 l -16.86,-21.76 4.03,36.29 c -3.41,3.51 -6.83,6.86 -10.2,10.04 -32.79,31 -64.61,43.21 -68.06,45.13 l -0.21,0.13 c 41.43,-97.54 56.89,-206.32 42.55,-315.26"
         style="fill:#606b1c;fill-opacity:1;fill-rule:nonzero;stroke:none"
         id="path322" /><path
         d="m 2628.84,2718.77 c 3.34,0.61 6.8,1.55 10.4,2.86 69.12,204.76 -46.79,307.17 -52.74,312.27 l -0.21,0.13 c 41.43,-97.54 56.89,-206.32 42.55,-315.26"
         style="fill:#95aa3a;fill-opacity:1;fill-rule:nonzero;stroke:none"
         id="path324" /><path
         d="m 2938.79,2754.58 c -96.1,15.25 -197.74,3.13 -292.32,-38.44 -2.37,-2 47.05,98.02 162.63,118.95 23.48,3.28 42.8,1.8 58.71,-2.68 l -11.11,-20.38 25.84,15.03 c 49.02,-22.17 57.03,-74.32 56.25,-72.48"
         style="fill:#606b1c;fill-opacity:1;fill-rule:nonzero;stroke:none"
         id="path326" /><path
         d="m 2572.45,2757.07 c 0.7,-2.87 17.29,94.16 -73.49,153.63 -92.63,55.58 -163.57,-3.59 -160.96,-2.6 50.95,-15.2 98.87,-38.33 142.15,-68.35 l 14.96,7.61 -7.15,-13.11 c 30.88,-22.3 59.25,-48.19 84.49,-77.18"
         style="fill:#606b1c;fill-opacity:1;fill-rule:nonzero;stroke:none"
         id="path328" /><path
         d="m 2389.57,2967.08 h 0.05 l 0.16,-0.06 c 40,-25.53 76.94,-55.26 110.07,-88.65 l 32.59,7.09 -9.7,-31.26 c 31.38,-34.99 58.94,-73.31 81.97,-114.42 5.11,-8.89 9.87,-17.98 14.46,-27.11 1.67,-3.29 3.22,-6.52 4.78,-9.75 l 0.19,-0.45 c 0.59,-1.08 1.07,-2.21 1.61,-3.29 l 0.52,-1.24 0.5,-0.91 0.05,-0.06 0.11,0.05 0.37,0.58 c 0.19,0.37 0.56,1.06 0.94,1.97 0.44,0.86 0.89,1.87 1.47,3.15 7.13,17.42 23.73,72.09 3.64,134.84 l -0.05,0.11 c -5,15.75 -12.34,31.93 -22.75,48.24 l -18.84,-13.88 6.27,31.7 c -2.49,3.23 -5.2,6.42 -7.91,9.67 -92.26,98.46 -197.26,56.28 -200.5,53.68"
         style="fill:#b4be21;fill-opacity:1;fill-rule:nonzero;stroke:none"
         id="path330" /><path
         d="m 2626.33,2697.06 0.17,0.09 0.42,0.53 1.29,1.35 0.06,0.1 1.05,1.03 1.37,1.57 0.18,0.21 0.12,0.15 0.34,0.31 c 2.77,2.96 5.54,5.92 8.31,8.83 20.57,21.51 42.38,41.63 65.26,60.37 5.5,4.54 11.05,8.98 16.65,13.35 l 6.04,39.46 30.4,-12.94 c 25.84,17.73 52.72,33.68 80.59,48.04 l 1.27,26.52 33.73,-8.98 -0.1,-0.71 c 36.08,16.32 73.52,29.81 112.08,40.25 2.98,0.26 -118.09,45.57 -232.16,-23.79 -69.65,-42.73 -102.22,-107.51 -116.67,-150.73 -3.86,-11.52 -6.41,-21.58 -8.04,-29.23 l -0.01,-0.16 c -0.46,-2.12 -0.85,-3.96 -1.18,-5.7 l -0.27,-1.68 -0.14,-0.54 0.03,-0.39 -0.14,-0.49 -0.11,-0.87 -0.02,-0.27 c -0.49,-3.49 -0.62,-5.51 -0.52,-5.68"
         style="fill:#b4be21;fill-opacity:1;fill-rule:nonzero;stroke:none"
         id="path332" /><path
         d="m 2279.33,2777.92 c 26.65,1.69 53.52,1.71 80.34,-0.02 6.43,9.71 14.05,20.88 14.05,20.88 l 2.51,-22.19 c 35.3,-3.19 70.52,-9.35 105.33,-18.62 6.95,7.54 19.86,21.51 19.86,21.51 l -5.55,-25.42 c 38.39,-10.98 76.2,-25.75 112.79,-44.31 7.83,-3.95 15.65,-8.06 23.4,-12.39 2.33,-2.35 -35.86,97.9 -141.32,147.74 l -5.43,-8.62 c 0,0 -1.92,6.16 -4.08,12.89 -10.7,4.63 -22.16,8.64 -34.25,12.03 -5.63,1.35 -11.06,2.4 -16.34,3.28 l -10.26,-15.68 -12.07,18.01 c -35.34,1.49 -61.55,-8.13 -80.8,-21.6 l 3.11,-18.82 -12.18,11.69 c -31.23,-26.62 -39.98,-61.95 -39.11,-60.36"
         style="fill:#b4be21;fill-opacity:1;fill-rule:nonzero;stroke:none"
         id="path334" /><path
         d="m 2279.33,2777.92 c 26.65,1.69 53.52,1.71 80.34,-0.02 6.43,9.71 14.05,20.88 14.05,20.88 l 2.51,-22.19 c 35.3,-3.19 70.52,-9.35 105.33,-18.62 6.95,7.54 19.86,21.51 19.86,21.51 l -5.55,-25.42 c 38.39,-10.98 76.2,-25.75 112.79,-44.31 -2.71,8.53 -7.26,17.49 -7.26,17.49 0,0 -156.43,172.48 -322.07,50.68"
         style="fill:#95aa3a;fill-opacity:1;fill-rule:nonzero;stroke:none"
         id="path336" /><path
         d="m 2499.85,2878.37 32.59,7.09 -9.7,-31.26 c 31.38,-34.99 58.94,-73.31 81.97,-114.42 2.83,0.43 5.72,0.96 8.67,1.55 -8.79,176.76 -217.09,224.29 -223.6,225.69 40,-25.53 76.94,-55.26 110.07,-88.65"
         style="fill:#95aa3a;fill-opacity:1;fill-rule:nonzero;stroke:none"
         id="path338" /><path
         d="m 2625.73,2700.77 c 4.04,0.52 8.03,1.04 12.07,1.5 56.49,6.2 114.18,2.54 170.3,-11.25 -0.76,7.19 -1.95,18.04 -2.09,19.37 l 19.23,-23.84 c 25.32,-7.14 50.24,-16.39 74.54,-27.63 0.67,2.82 1.29,81.3 -92.72,109.53 -17.72,4.96 -35.68,5.81 -52.95,3.92 l -3.51,-18.46 c 0,0 -6.1,9.72 -9.97,16.39 -24.36,-4.74 -46.74,-14.61 -64.29,-25.49 -33.35,-20.22 -49.95,-44.08 -50.61,-44.04"
         style="fill:#b4be21;fill-opacity:1;fill-rule:nonzero;stroke:none"
         id="path340" /><path
         d="m 2637.8,2702.27 c 56.49,6.2 114.18,2.54 170.3,-11.25 -0.76,7.19 -1.95,18.04 -2.09,19.37 l 19.23,-23.84 c 25.32,-7.14 50.24,-16.39 74.54,-27.63 0,0 -104.01,131.12 -260.87,48.72 -0.45,-1.84 -0.83,-3.63 -1.11,-5.37"
         style="fill:#95aa3a;fill-opacity:1;fill-rule:nonzero;stroke:none"
         id="path342" /><path
         d="m 2641.27,2711.23 c 0,-8.93 -7.23,-16.16 -16.15,-16.16 -8.93,0 -16.16,7.23 -16.16,16.16 0,8.92 7.23,16.15 16.16,16.15 8.92,0 16.15,-7.23 16.15,-16.15"
         style="fill:#b4be21;fill-opacity:1;fill-rule:nonzero;stroke:none"
         id="path344" /></g></g></svg>
